<?xml version="1.0" encoding="UTF-8" standalone="no" ?>
<!DOCTYPE svg PUBLIC "-//W3C//DTD SVG 1.1//EN" "http://www.w3.org/Graphics/SVG/1.1/DTD/svg11.dtd">
<svg xmlns="http://www.w3.org/2000/svg" xmlns:xlink="http://www.w3.org/1999/xlink" version="1.1" width="1280" height="1024" viewBox="0 0 1280 1024" xml:space="preserve">
<desc>Created with Fabric.js 5.3.0</desc>
<defs>
</defs>
<g transform="matrix(1 0 0 1 640 512)" id="background-logo"  >
<rect style="stroke: none; stroke-width: 0; stroke-dasharray: none; stroke-linecap: butt; stroke-dashoffset: 0; stroke-linejoin: miter; stroke-miterlimit: 4; fill: rgb(255,255,255); fill-opacity: 0; fill-rule: nonzero; opacity: 1;"  paint-order="stroke"  x="-640" y="-512" rx="0" ry="0" width="1280" height="1024" />
</g>
<g transform="matrix(1.5323521708754586 0 0 1.5323521708754586 639.309210526316 399.7782014170041)" id="logo-logo"  >
<g style=""  paint-order="stroke"   >
		<g transform="matrix(0.16336861567344504 0 0 0.16336861567344504 0 0)"  >
<path style="stroke: none; stroke-width: 1; stroke-dasharray: none; stroke-linecap: butt; stroke-dashoffset: 0; stroke-linejoin: miter; stroke-miterlimit: 4; fill: rgb(192,122,73); fill-rule: nonzero; opacity: 1;"  paint-order="stroke"  transform=" translate(-1024.1622470242328, -1023.9896522490099)" d="M 997.18 187.87 L 1028.19 187.87 C 1083.74 187.8 1083.74 187.8 1109.52 190.57 L 1113.15 190.95 C 1153.1100000000001 195.14999999999998 1192.77 202.76 1256.47 218.7 C 1295.15 229.89 1333.07 243.51999999999998 1369.6100000000001 260.44 Q 1374.5200000000002 262.7 1379.46 264.92 C 1404.28 276.16 1428.71 288.12 1452.04 302.22 Q 1456.76 305.06 1461.51 307.86 C 1472.27 314.23 1482.94 320.69 1493.24 327.79 Q 1495.56 329.39000000000004 1497.9 330.96000000000004 C 1507.4871856190557 337.4591638792331 1516.881242986883 344.2387587066357 1526.0700000000002 351.2900000000001 Q 1527.42 352.33000000000004 1528.7900000000002 353.36 C 1535.8650651923172 358.726497721662 1542.826601284 364.2410478632536 1549.67 369.8999999999999 L 1553.6400000000003 373.14000000000004 C 1564.0008557290648 381.4987955471957 1574.08622128945 390.19342121383704 1583.88 399.20999999999975 Q 1587.8800000000003 402.92 1592.0000000000002 406.50000000000006 C 1600.2643600878703 413.6355918454694 1608.2375088109802 421.1016616539713 1615.9 428.87999999999994 Q 1620.8600000000004 433.90000000000003 1625.9000000000003 438.87000000000006 L 1631.0400000000004 443.99000000000007 L 1634.9200000000005 447.8400000000001 C 1640.6121259850893 453.37639824355443 1646.0670219159658 459.15158164193207 1651.2700000000004 465.1500000000002 C 1653.2400000000005 467.43000000000006 1655.3200000000004 469.61000000000007 1657.3700000000003 471.8100000000001 C 1661.3500000000004 476.1100000000001 1665.1300000000003 480.5100000000001 1668.8000000000004 485.0700000000001 Q 1672.2400000000005 489.3300000000001 1675.9400000000005 493.3700000000001 C 1680.1400000000006 498.03000000000014 1683.9400000000005 502.9900000000001 1687.7200000000005 507.9900000000001 Q 1690.2600000000004 511.35000000000014 1692.8300000000004 514.6700000000001 C 1700.2300000000005 524.2400000000001 1707.4800000000005 533.83 1714.0500000000004 544.0000000000001 C 1715.7759350937229 546.6558734150784 1717.5260075806027 549.2959827667144 1719.3000000000006 551.9200000000003 C 1736.5000000000005 577.5200000000001 1752.5400000000004 603.7400000000001 1767.0000000000005 631.0000000000001 L 1767.8700000000003 632.6400000000001 C 1786.8400000000004 668.3700000000001 1803.8700000000003 705.2500000000001 1821.6400000000003 756.96 C 1833.4600000000003 793.5 1842.8100000000004 830.83 1857.6000000000004 910.1400000000001 C 1859.1688905723595 921.8026263386529 1860.5091477240421 933.4948696992276 1861.6200000000003 945.2099999999999 Q 1862.0400000000004 949.4400000000002 1862.5000000000005 953.6700000000002 C 1866.5400000000004 991.7500000000002 1866.6000000000004 1030.92 1864.0300000000004 1069.1100000000001 C 1863.5205337993457 1076.287288413905 1862.9204859941522 1083.4578596859697 1862.2300000000005 1090.6200000000001 Q 1861.8900000000006 1094.16 1861.5800000000004 1097.7 C 1857.5500000000004 1142.56 1849.0300000000004 1186.76 1831.3700000000003 1258.52 C 1824.4170295148135 1284.0503718627176 1815.8156455319754 1309.102946570013 1805.6200000000003 1333.52 Q 1804.7200000000003 1335.6399999999999 1803.8600000000004 1337.76 C 1795.4200000000003 1358.21 1785.6200000000003 1378.09 1776.0000000000005 1398 L 1775.5000000000005 1399.05 C 1767.2281877245894 1416.258985101896 1758.226686347922 1433.107607026348 1748.5200000000004 1449.55 C 1733.4600000000005 1475.51 1716.2400000000005 1500.21 1697.8500000000004 1523.9099999999999 L 1694.4000000000003 1528.37 C 1674.0600000000004 1554.7399999999998 1674.0600000000004 1554.7399999999998 1664.1700000000003 1565.4799999999998 C 1661.4700000000003 1568.4299999999998 1658.9400000000003 1571.4999999999998 1656.4400000000003 1574.62 C 1653.4400000000003 1578.36 1650.3000000000002 1581.82 1646.8700000000003 1585.1699999999998 C 1644.773519724591 1587.210788865622 1642.7714298689418 1589.3463513783145 1640.8700000000003 1591.57 C 1631.6800000000003 1602.22 1621.8300000000004 1612.27 1611.8900000000003 1622.24 L 1609.6300000000003 1624.5 C 1604.5486566900086 1629.6964226884656 1599.2610796571491 1634.6870947649059 1593.7800000000004 1639.46 C 1591.8074961545096 1641.1588617397747 1589.880158882636 1642.9094708535008 1588.0000000000005 1644.71 L 1586.4700000000005 1646.14 C 1581.8800000000006 1650.44 1577.2100000000005 1654.5700000000002 1572.2900000000004 1658.5 Q 1568.3600000000004 1661.65 1564.5800000000004 1664.99 L 1563.6800000000003 1665.79 L 1562.7600000000002 1666.59 C 1555.2494719532283 1673.1530958859814 1547.4834575479485 1679.4179477129207 1539.4800000000002 1685.37 Q 1535.1300000000003 1688.6599999999999 1530.8200000000002 1691.9899999999998 C 1521.1150058051728 1699.55903112535 1511.1559409443284 1706.7965297013823 1500.9600000000003 1713.6899999999998 Q 1498.4800000000002 1715.35 1496.0100000000002 1717.0399999999997 C 1474.5300000000002 1731.7699999999998 1452.0600000000002 1744.9099999999996 1429.0000000000002 1756.9999999999998 L 1426.0400000000002 1758.5599999999997 Q 1418.7500000000002 1762.3799999999997 1411.4600000000003 1766.1599999999996 C 1407.9855498656761 1767.9587665948984 1404.522151546877 1769.7788007451047 1401.0700000000002 1771.6199999999994 C 1381.9119684340953 1781.8530679007908 1362.190472001842 1790.9943337263385 1342 1799 L 1341.02 1799.39 C 1302.82 1814.5400000000002 1263.86 1826.5500000000002 1179 1847 C 1166.7381472175591 1849.4182889624103 1154.397701109113 1851.4194423854015 1142 1853 L 1140.9 1853.15 Q 1124.48 1855.3200000000002 1108 1857 L 1106.28 1857.18 C 1076.99 1860.14 1047.44 1860.3400000000001 1018.03 1860.01 L 1014.9599999999999 1859.98 C 974.43 1859.6100000000001 933.7199999999999 1856.08 868.8299999999999 1846.1200000000001 C 831.5999999999999 1839.13 794.76 1829.0500000000002 758.8799999999999 1816.96 L 752.0499999999998 1814.7 C 718.8999999999999 1803.8 687.4799999999998 1789.79 656.1099999999999 1774.54 L 652.8499999999999 1772.96 C 637.05 1765.28 621.4699999999999 1757.31 606.2799999999999 1748.47 Q 601.8799999999999 1745.92 597.4199999999998 1743.43 C 568.4015901656345 1727.2128509539732 540.800694564863 1708.5803229578155 514.9099999999997 1687.73 L 512.0599999999998 1685.43 C 504.4762316178254 1679.3570848715394 496.9820896581426 1673.1730842775837 489.5799999999999 1666.88 Q 485.3299999999998 1663.24 480.9499999999998 1659.75 C 475.2577184556029 1655.1129189563692 469.7628683853467 1650.2386166171802 464.47999999999973 1645.14 Q 459.8499999999998 1640.73 455.0199999999998 1636.5200000000002 C 451.0199999999998 1633.0500000000002 447.1599999999998 1629.4500000000003 443.3199999999998 1625.8200000000002 L 439.0699999999998 1621.8200000000002 L 438.0099999999998 1620.8200000000002 C 435.95116283013937 1618.8808050321957 433.87440707127536 1616.9607226612395 431.77999999999986 1615.0600000000002 C 424.9112461362926 1608.783936578409 418.1926810541269 1602.3454506361452 411.6299999999998 1595.75 L 410.3299999999998 1594.4600000000003 C 405.2705447040026 1589.4566296543646 400.4101112107398 1584.255932457387 395.75999999999976 1578.8700000000003 C 393.80999999999983 1576.6300000000003 391.7599999999998 1574.4800000000002 389.74999999999983 1572.3100000000004 C 383.9976345781381 1566.0219233884984 378.41235378232 1559.5830116173192 373.0000000000001 1553 L 371.87 1551.65 C 349.33 1524.65 328.35 1496.01 310 1466 L 309.14 1464.6 C 294.3978032669402 1440.4696772039788 280.60721505479563 1415.77071370066 267.8000000000002 1390.5600000000002 L 265.49999999999994 1386.07 C 252.31999999999994 1360.47 241.62999999999994 1334.11 231.99999999999994 1307 L 231.62999999999994 1305.95 C 217.53999999999994 1266.3400000000001 206.91999999999993 1225.74 191.99999999999994 1146 L 191.79999999999995 1144.82 C 190.13028295706422 1134.9955390664 188.66995196671178 1125.1366378370108 187.42000000000007 1115.25 L 186.55999999999995 1108.75 C 182.82999999999996 1081.67 182.59999999999994 1054.52 182.55999999999995 1027.23 L 182.54999999999995 1020.21 C 182.39999999999995 975.8100000000001 185.34999999999997 931.52 193.70999999999995 880.28 C 201.25999999999996 836.66 213.07999999999996 793.43 229.44999999999996 746.74 C 241.00999999999996 714.73 254.81999999999996 683.9 269.84999999999997 653.39 Q 272.37999999999994 648.28 274.86999999999995 643.15 C 286.2836788474926 619.5357093980098 299.3599012194986 596.7617621797065 314 575 L 314.66 574.02 C 337.54 539.9499999999999 362.55 506.52 392.74 473.47999999999996 Q 395.64 470.31999999999994 398.44 467.05999999999995 C 401.63 463.37999999999994 404.93 459.78999999999996 408.24 456.2099999999999 Q 412.35 451.7699999999999 416.31 447.18999999999994 C 427.97 433.7099999999999 440.39 420.38999999999993 454 408.85999999999996 Q 456.3 406.85999999999996 458.55 404.77 Q 464.92 398.97999999999996 471.62 393.58 C 475.12 390.75 478.52 387.84 481.92 384.89 C 488.2669774242086 379.4228473449135 494.76275455246184 374.130856429853 501.39999999999986 369.0200000000001 Q 504.38000000000005 366.7 507.32000000000005 364.35999999999996 C 541.6600000000001 337.02 578.33 313.53999999999996 616.86 292.5799999999999 Q 624.9 288.23999999999995 633 283.99999999999994 L 634.47 283.22999999999996 C 667.85 265.72999999999996 702.87 251.56999999999996 738 237.99999999999997 L 739.25 237.51999999999998 C 776.45 223.14 814.6 212.63 853.62 204.49999999999997 L 859.48 203.25999999999996 C 883.4781692984444 198.2643766327102 907.7028580664394 194.42660392528578 932.0699999999995 191.76000000000008 C 936.9442509995185 191.17594780237292 941.8209616897707 190.6126093836084 946.6999999999995 190.07000000000014 C 963.47 188.17999999999998 980.32 187.83999999999997 997.1800000000001 187.86999999999998" stroke-linecap="round" />
</g>
		<g transform="matrix(0.16336861567344504 0 0 0.16336861567344504 -0.021317017225271684 -18.022160464332842)"  >
<path style="stroke: none; stroke-width: 1; stroke-dasharray: none; stroke-linecap: butt; stroke-dashoffset: 0; stroke-linejoin: miter; stroke-miterlimit: 4; fill: rgb(254,254,254); fill-rule: nonzero; opacity: 1;"  paint-order="stroke"  transform=" translate(-1024.0317628603227, -913.6737241251096)" d="M 1131.64 254.49 C 1153.5400000000002 257.72 1175.24 262.03000000000003 1196.8600000000001 266.75 L 1200.21 267.48 C 1238.05 275.64000000000004 1275.6100000000001 286.65000000000003 1311.51 301.20000000000005 C 1333.8042705055423 310.4066173537283 1355.70648378034 320.53534842795307 1377.16 331.5600000000002 Q 1380.8400000000001 333.4200000000001 1384.5600000000002 335.21000000000004 C 1397.1000000000001 341.31000000000006 1409.13 348.13000000000005 1421.1000000000001 355.28000000000003 Q 1424.5500000000002 357.33000000000004 1428.0100000000002 359.35 C 1440.6604913300828 366.7713189564381 1452.963454040162 374.76974630009425 1464.88 383.32 C 1468.6145545720485 385.9468789840421 1472.328007039442 388.6036308839635 1476.0200000000004 391.2900000000001 L 1479.1900000000003 393.5900000000001 C 1489.4316095457082 400.9779713705009 1499.4366264575142 408.6885044038661 1509.1900000000005 416.7100000000003 C 1512.1549178737366 419.127345036886 1515.155242599218 421.5009352641556 1518.1900000000005 423.8300000000001 C 1529.7400000000002 432.7800000000001 1540.6300000000003 442.4900000000001 1551.2800000000002 452.4800000000001 Q 1553.8200000000002 454.8400000000001 1556.4 457.1600000000001 C 1565.3400000000001 465.2000000000001 1573.8400000000001 473.68000000000006 1582.3300000000002 482.2000000000001 C 1586.0337775348678 485.92287685226773 1589.7471231477314 489.63622246513194 1593.4699999999991 493.3399999999995 L 1595.7700000000002 495.6400000000001 C 1600.4700000000003 500.3200000000001 1604.9400000000003 505.1100000000001 1609.2500000000002 510.1400000000001 Q 1611.6200000000001 512.82 1614.0700000000002 515.4100000000001 C 1618.7378388149934 520.4107532648808 1623.2208471455062 525.580889360338 1627.5100000000002 530.9100000000001 C 1629.3750125687407 533.2271161335302 1631.265123931861 535.5239181250465 1633.1800000000003 537.8000000000001 C 1641.562726086069 547.8484388268485 1649.5682752760183 558.2056180913451 1657.18 568.8499999999998 L 1659.6000000000004 572.22 C 1667.3412453929907 582.9765063349358 1674.7350561622645 593.978843605046 1681.7700000000004 605.2099999999998 C 1695.1000000000004 626.3000000000001 1707.2900000000004 647.98 1719.0000000000005 670 L 1719.8700000000003 671.64 C 1738.2200000000003 706.14 1754.1500000000003 741.97 1766.3900000000003 779.12 C 1778.0900000000004 815.21 1786.8900000000003 852.14 1797.8500000000004 917.47 C 1799.2000000000003 927.07 1800.2900000000004 936.6800000000001 1801.3100000000004 946.3100000000001 L 1801.4400000000005 947.49 C 1802.0609834823738 953.326142200328 1802.6076943879025 959.1699484039359 1803.0800000000006 965.0199999999999 C 1804.3500000000006 980.64 1804.2000000000005 996.3199999999999 1804.1800000000005 1012 L 1804.1800000000005 1015.22 C 1804.1800000000005 1035.94 1804.0000000000005 1056.56 1802.1600000000005 1077.22 Q 1801.9200000000005 1079.98 1801.7100000000005 1082.75 C 1798.1800000000005 1128.55 1790.3300000000004 1173.95 1778.9900000000005 1218.45 C 1768.8900000000006 1257.76 1756.1900000000005 1296.3500000000001 1739.4500000000005 1333.3500000000001 C 1734.5851062426666 1344.0178558885539 1729.5679267541118 1354.615605784976 1724.4000000000003 1365.14 Q 1723.0500000000006 1367.88 1721.7300000000005 1370.64 C 1715.5700000000004 1383.46 1708.6500000000005 1395.74 1701.3800000000006 1407.96 C 1699.458067953457 1411.2124290222737 1697.5779134442937 1414.4893649841663 1695.7400000000007 1417.7899999999997 C 1683.5700000000004 1439.54 1668.9600000000005 1460.24 1653.7800000000004 1479.99 L 1648.6600000000005 1486.67 L 1644.4500000000005 1492.16 C 1641.2088820812487 1496.3721853557815 1638.0581625939417 1500.6531629448841 1635 1505 L 1632 1505 L 1632 1503.7 Q 1632.11 1487.96 1632.16 1472.21 Q 1632.17 1464.6100000000001 1632.23 1456.98 C 1632.51 1414.85 1632.51 1414.85 1629.83 1398.6 L 1629 1394 L 1628.64 1391.96 Q 1627.6100000000001 1386.23 1626.25 1380.56 L 1625.47 1377.19 Q 1624.27 1372.0900000000001 1623 1367 L 1622.6 1365.38 C 1618.6 1349.25 1613.3799999999999 1333.8000000000002 1606.6999999999998 1318.5800000000002 C 1597.6799999999998 1298.2600000000002 1587.5299999999997 1278.7400000000002 1575.12 1260.2800000000002 C 1571.5121706052853 1254.8273195049592 1567.42963080976 1249.7040666959847 1562.9199999999998 1244.9700000000003 L 1561.9399999999998 1243.9700000000003 C 1560.4399999999998 1242.4300000000003 1559.07 1240.8100000000002 1557.6899999999998 1239.1900000000003 C 1554.2899999999997 1235.2500000000002 1550.7399999999998 1231.4500000000003 1547.1899999999998 1227.6400000000003 C 1544.2351577809397 1224.4795903636518 1541.3380124800042 1221.2657260712444 1538.4999999999998 1218.0000000000002 C 1534.0299999999997 1212.8200000000002 1529.3399999999997 1207.8300000000002 1524.6799999999998 1202.8100000000002 L 1521.2499999999998 1199.1100000000001 C 1502.1499999999999 1178.46 1502.1499999999999 1178.46 1492.2199999999998 1170.0400000000002 L 1487.0799999999997 1165.64 L 1482.6299999999997 1161.8300000000002 C 1479.4857363546257 1159.150445111234 1476.3590030312587 1156.4503875505436 1473.2499999999995 1153.73 C 1465.3793995559367 1146.8223417469428 1457.2920126664676 1140.1656719608065 1448.9999999999995 1133.77 L 1436.3999999999996 1124.0300000000002 C 1431.0799999999997 1119.9300000000003 1425.7499999999995 1115.7500000000002 1420.9999999999995 1111.0000000000002 C 1420.4699999999996 1089.3300000000002 1420.4699999999996 1089.3300000000002 1421.5599999999995 1081.3000000000002 C 1422.087528653629 1077.8051819690902 1422.9036525670865 1074.3600687278565 1423.9999999999995 1071.0000000000002 C 1425.3984669070067 1067.19760937594 1427.1110473769318 1063.518237272585 1429.1199999999994 1060.0000000000002 C 1430.3963885259793 1057.8143973503252 1431.8548941326508 1055.7403756160675 1433.4799999999993 1053.8000000000002 C 1434.5641244783535 1052.6702778471372 1435.7379614770496 1051.6302114465832 1436.9899999999993 1050.6900000000003 C 1439.5899999999992 1048.9100000000003 1442.3299999999992 1047.3900000000003 1445.1799999999994 1046.0400000000002 C 1450.4093754543192 1044.0699513957584 1455.9174110719657 1042.939319084538 1461.4999999999993 1042.6900000000003 Q 1463.8499999999992 1042.6400000000003 1466.2199999999993 1042.6600000000003 L 1467.4999999999993 1042.6600000000003 C 1477.0999999999992 1042.7100000000003 1486.3999999999994 1044.1700000000003 1495.8399999999992 1045.8800000000003 L 1497.1999999999991 1046.1300000000003 Q 1503.319999999999 1047.2300000000002 1509.4399999999991 1048.2700000000004 L 1510.779999999999 1048.5000000000005 C 1521.769999999999 1050.4000000000005 1533.019999999999 1051.9600000000005 1544.1799999999992 1052.3100000000004 C 1549.0973783797638 1052.1414145009144 1553.9915925160333 1051.5559821879635 1558.8099999999993 1050.5600000000004 C 1561.6099999999992 1049.9800000000005 1564.3299999999992 1049.3000000000004 1566.9899999999993 1048.2600000000004 C 1568.9007622048384 1047.4508730480063 1570.7819653429806 1046.573645343518 1572.6299999999994 1045.6300000000003 L 1574.3099999999995 1044.7800000000004 C 1576.8036130523228 1043.4613021400621 1579.1761286166154 1041.9253576492156 1581.3999999999994 1040.1900000000005 C 1583.0476147139473 1038.8587788776679 1584.601312175887 1037.415343816253 1586.0499999999995 1035.8700000000006 Q 1587.3799999999994 1034.2400000000005 1588.5599999999995 1032.5000000000007 L 1589.4399999999996 1031.2400000000007 C 1590.6905961379007 1029.357738330012 1591.8067056829818 1027.3895092220691 1592.7799999999995 1025.3500000000006 C 1594.584838753613 1021.26545605849 1596.1083892545557 1017.0623277028191 1597.3399999999995 1012.7700000000006 C 1597.8999999999994 1010.3600000000006 1598.1099999999994 1007.9700000000006 1598.2399999999996 1005.5000000000006 C 1598.288422025621 1003.7804061086422 1598.3150908256123 1002.0602685092074 1598.3199999999995 1000.3400000000005 C 1598.3399999999995 996.6800000000006 1598.1999999999996 993.0600000000006 1597.6199999999994 989.4400000000006 Q 1596.9199999999994 985.5100000000007 1596.0599999999995 981.6300000000007 L 1595.7899999999995 980.3300000000007 L 1594.7099999999996 975.3400000000007 C 1593.8499999999997 971.3600000000007 1593.0699999999995 967.3800000000007 1592.9099999999996 963.3000000000008 Q 1592.9199999999996 961.5600000000007 1593.1499999999996 959.8400000000007 C 1593.4499999999996 958.3000000000008 1593.8599999999997 956.8300000000007 1594.3899999999996 955.3400000000007 C 1595.0599999999997 953.7200000000007 1595.8499999999997 952.2400000000007 1596.7899999999997 950.7500000000007 Q 1598.5599999999997 948.1500000000007 1600.4399999999998 945.5900000000007 C 1602.1442468193816 943.3626679141505 1603.6500076583284 940.9902580590099 1604.9399999999998 938.5000000000007 C 1605.57 936.8400000000007 1605.57 936.8400000000007 1605.9999999999998 935.0000000000007 C 1606.3199999999997 932.5000000000007 1606.3499999999997 930.0000000000007 1606.2399999999998 927.4900000000007 C 1606.0847351515306 925.1985191674274 1605.6481217692242 922.9348467083928 1604.9399999999998 920.7500000000007 C 1604.5936163321396 919.5085175817381 1604.280173110603 918.258079197949 1603.9999999999998 917.0000000000007 C 1603.8799999999999 915.4500000000007 1603.8799999999999 915.4500000000007 1603.9999999999998 914.0000000000007 Q 1604.1399999999999 913.3000000000006 1604.3199999999997 912.5700000000007 C 1604.9999999999998 911.0000000000007 1604.9999999999998 911.0000000000007 1605.6199999999997 910.0500000000008 Q 1607.5199999999998 907.4100000000008 1609.5699999999997 904.8700000000008 C 1610.3742077795857 903.8481992107031 1611.131652875938 902.7904454858411 1611.8399999999997 901.7000000000008 C 1612.3799999999997 900.5600000000009 1612.3799999999997 900.5600000000009 1612.7399999999998 899.3700000000008 C 1613.1399999999999 897.2500000000008 1613.4199999999998 895.2200000000008 1613.4499999999998 893.0700000000008 C 1613.3898631580842 891.7048983975768 1613.239535295127 890.3452663926103 1612.9999999999998 889.0000000000008 C 1612.0999999999997 885.5900000000008 1610.9799999999998 882.2500000000008 1609.8599999999997 878.9000000000008 C 1608.8073509890366 875.9962827501513 1608.0011675885657 873.0090554612698 1607.4499999999996 869.9700000000008 C 1607.212427301807 867.9875714807936 1607.0622818183 865.9956413996018 1606.9999999999995 864.0000000000008 L 1609.9999999999995 860.0000000000008 L 1612.0999999999995 859.2700000000008 C 1636.4999999999995 850.7700000000008 1636.4999999999995 850.7700000000008 1643.6299999999994 847.0200000000008 C 1645.3795466814615 846.0596194392109 1647.0632643762463 844.9839109119873 1648.6699999999994 843.8000000000008 C 1649.9999999999993 842.6300000000008 1649.9999999999993 842.6300000000008 1651.0399999999993 841.4000000000008 C 1652.4537372421219 839.4136095382869 1653.7172466911345 837.3244735445489 1654.8199999999993 835.1500000000008 Q 1655.4899999999993 833.6000000000008 1655.9999999999993 832.0000000000008 C 1656.3899999999994 830.1000000000008 1656.3899999999994 830.1000000000008 1656.4999999999993 828.1900000000009 C 1656.4067413277608 826.3848848668325 1656.15578515449 824.5913847485257 1655.7499999999993 822.8300000000008 C 1655.1636805726034 820.536019682338 1654.4048535589975 818.2896242940421 1653.4799999999993 816.1100000000008 C 1650.3999999999994 809.3400000000008 1646.0999999999992 803.1800000000009 1641.9999999999993 797.0000000000008 L 1640.9199999999994 795.3700000000008 Q 1635.1799999999994 786.7100000000008 1629.3899999999994 778.0700000000008 C 1624.5299999999995 770.8000000000009 1619.6899999999994 763.5200000000009 1614.9599999999994 756.1500000000009 L 1613.7199999999993 754.2200000000009 L 1613.0999999999995 753.2500000000009 Q 1610.1699999999994 748.700000000001 1607.1799999999994 744.1800000000009 L 1605.1499999999994 741.0800000000008 L 1602.1499999999994 736.5300000000009 C 1598.974311820686 731.812062851859 1595.962516599971 726.9858527916438 1593.1199999999994 722.0600000000009 L 1592.4999999999995 720.9900000000008 C 1591.956352580579 720.0158348285986 1591.4558677748016 719.0182017824156 1590.9999999999995 718.0000000000008 C 1590.5499999999995 716.6600000000008 1590.2699999999995 715.4000000000008 1589.9999999999995 714.0000000000008 C 1589.8052168011393 711.6707317196558 1589.8052168011393 709.3292682803458 1589.9999999999995 707.0000000000008 C 1590.413295240893 704.8849024772144 1590.9576784708092 702.7975434667993 1591.6299999999997 700.7500000000008 L 1592.1499999999996 698.9900000000008 Q 1593.8099999999997 693.5100000000008 1595.5699999999997 688.0400000000008 L 1595.9699999999998 686.7600000000008 L 1597.9799999999998 680.4900000000008 C 1600.3399999999997 673.1600000000008 1600.3399999999997 673.1600000000008 1600.8499999999997 670.2100000000008 C 1601.3999999999996 665.7400000000008 1601.4699999999996 661.2600000000008 1601.2899999999997 656.7700000000008 C 1600.8299999999997 648.7500000000008 1599.0199999999998 640.8200000000007 1597.2199999999998 633.0100000000008 C 1592.5899999999997 613.4700000000008 1585.9199999999998 594.4800000000008 1579.3199999999997 575.5400000000008 L 1578.6999999999998 573.7600000000008 C 1577.682535659273 570.8194662505867 1576.5820955696176 567.9083020134077 1575.3999999999999 565.0300000000007 C 1574.9999999999998 564.0000000000008 1574.9999999999998 564.0000000000008 1574.6299999999999 562.3300000000007 C 1574.5845882059612 561.2172358130507 1574.5779175018388 560.1032282246287 1574.61 558.9900000000007 C 1574.74 558.0200000000007 1574.74 558.0200000000007 1575 557.0000000000007 C 1575.690137700353 555.4408443945046 1576.4611866011128 553.9187738371604 1577.31 552.4400000000007 Q 1578.8 549.7900000000008 1580 547.0000000000007 C 1581.56 542.0600000000006 1582.44 536.9400000000007 1583.17 531.8200000000007 C 1583.3500000000001 530.2400000000007 1583.3700000000001 528.7400000000007 1583.27 527.1600000000008 C 1583.1381496866902 525.9578009229754 1582.98813254606 524.7576637979323 1582.82 523.5600000000006 C 1582.3061804172667 519.6378793539686 1581.4700173962658 515.7647722406933 1580.32 511.98000000000076 C 1578.8595728662992 507.82443974597055 1577.0497699651128 503.8000536274359 1574.9099999999999 499.9500000000008 C 1572.3791835401043 495.3949574106682 1569.4617945252953 491.06571270291244 1566.1899999999998 487.0100000000008 C 1560.091830744099 479.528886331522 1553.37478678621 472.5743373332892 1546.11 466.22000000000077 C 1541.8899999999999 462.62000000000074 1537.4799999999998 459.2700000000008 1533 456.00000000000074 L 1532.18 455.4000000000007 C 1518.0800000000002 445.0800000000007 1502.88 436.3300000000007 1487.23 428.6000000000007 C 1468.53 419.4600000000007 1448.59 412.7700000000007 1428.6100000000001 407.01000000000073 C 1406.751393590302 400.94932566833637 1384.4179533561787 396.75427862615686 1361.8499999999997 394.4700000000007 C 1335.7300000000002 391.8600000000007 1309.0900000000001 390.57000000000073 1282.88 392.5000000000007 C 1265.95 393.83000000000067 1249.0700000000002 396.20000000000067 1232.5800000000002 400.3600000000007 C 1225.9535058253412 402.1003219674679 1219.3983892154429 404.101884291101 1212.9299999999998 406.3600000000007 C 1200.4571632680274 410.6001729364462 1188.3752885811352 415.9133872822742 1176.8200000000002 422.2400000000007 C 1165.5600000000002 428.5000000000007 1155.0400000000002 435.9400000000007 1145.0000000000002 444.0000000000007 C 1139.778965417615 448.1380484694504 1134.927384020433 452.72195641023626 1130.5000000000002 457.7000000000006 C 1128.8181388037954 459.6768749024352 1127.1843279167192 461.69413120178416 1125.6000000000001 463.7500000000007 C 1124.26891755924 465.4064102825345 1123.0654618382032 467.16144987571334 1122.0000000000002 469.0000000000007 C 1121.5200000000002 470.4900000000007 1121.5200000000002 470.4900000000007 1121.2300000000002 471.8800000000007 Q 1121.0900000000001 472.9300000000007 1121.0000000000002 474.0000000000007 C 1123.1500000000003 477.5400000000007 1125.3500000000001 481.08000000000067 1128.0600000000002 484.2300000000007 C 1129.2165467879486 485.49602398697175 1130.3832511430683 486.75273124948626 1131.5600000000002 488.00000000000057 C 1143.2800000000002 500.5700000000007 1152.91 514.8600000000007 1162.2800000000002 529.2100000000007 C 1167.1100000000001 536.6700000000008 1171.7200000000003 544.2100000000007 1176.0000000000002 552.0000000000007 L 1176.6900000000003 553.2500000000007 C 1193.0100000000002 582.9900000000007 1205.7900000000002 614.6800000000006 1216.7100000000003 646.7800000000007 C 1218.94693111982 653.4755638235724 1221.044053281927 660.2170280712359 1223 667 L 1223.47 668.61 C 1229.67 690.08 1233.69 712 1237.73 733.95 C 1240.919584874535 751.3181740822038 1244.5742311377762 768.5977150823094 1248.69 785.77 C 1251.05 795.8900000000001 1253.52 805.8900000000001 1257.38 815.57 C 1258.65 818.47 1260.18 821.23 1261.8700000000001 823.9100000000001 C 1265.0073144804362 828.07950170885 1268.368939567071 832.0753956797556 1271.94 835.8800000000001 L 1272.81 836.8400000000001 C 1274.7411959554677 839.0219745865855 1276.8086688907515 841.0794274591781 1279 843 C 1281.5239248120356 844.8848604474728 1284.1997538936268 846.5572536234672 1287 848 Q 1289.65 849.27 1292.42 850.24 C 1294.1200000000001 850.67 1295.78 850.98 1297.52 851.17 Q 1302.5 851.53 1307.48 851.16 C 1309.26 850.9699999999999 1310.98 850.7099999999999 1312.71 850.28 C 1314.19 849.8199999999999 1315.58 849.28 1316.97 848.5799999999999 C 1318.4439326031888 847.745533102888 1319.8604248088147 846.8134545053181 1321.21 845.79 C 1322.5995067349004 844.6474427625957 1323.9061260989872 843.4076581485901 1325.1200000000001 842.0799999999999 C 1326.3176353899175 840.5903029487017 1327.3912255402258 839.0050016052559 1328.3300000000002 837.3399999999999 C 1329.2040781197256 835.6905117969527 1329.972297297036 833.9870692733513 1330.63 832.2399999999999 C 1331 830.9999999999999 1331 830.9999999999999 1331.2 829.7699999999999 C 1331.3500000000001 827.9499999999998 1331.3 826.2299999999999 1331.18 824.3999999999999 L 1331 822.9999999999999 L 1328 819.9999999999999 L 1323 819.9999999999999 L 1322.18 820.9599999999999 L 1319.0600000000002 824.53 Q 1318.0600000000002 825.67 1317.0800000000002 826.8299999999999 C 1315.7991063813724 828.2952553726229 1314.436963214765 829.6874458149646 1313 831 C 1311.548839071876 831.9647700938025 1310.0163774659889 832.8012666035662 1308.42 833.5 C 1307 834 1307 834 1305.8200000000002 834.29 C 1304.7200000000003 834.43 1303.7200000000003 834.4699999999999 1302.6200000000001 834.4399999999999 L 1301.47 834.41 C 1300.29 834.3399999999999 1299.17 834.2099999999999 1298 834 C 1296.971599444209 833.7240393731889 1295.9627036361678 833.3799457697841 1294.98 832.97 C 1292.8676476516587 831.8984683893623 1290.847441883946 830.6542356979894 1288.94 829.25 C 1286.5305885358223 827.4513598357408 1284.2699473778518 825.4615943194799 1282.18 823.3 C 1278.5125169754388 819.1702021861965 1275.2007247774868 814.7377530323722 1272.28 810.05 C 1267.25 802.05 1262.8799999999999 793.68 1259.28 784.9399999999999 C 1256.9403589431276 779.049089202597 1254.8452370228954 773.0639797680483 1253 767 L 1252.63 765.8 C 1251.088773201188 760.9111787916843 1249.9680313288707 755.8996225984562 1249.2800000000002 750.8199999999999 C 1248.1800000000003 740.8199999999999 1248.2400000000002 730.5699999999999 1248.88 720.54 Q 1249.22 716.29 1250.18 712.14 C 1250.9519902811712 709.3713439312359 1251.8937732316576 706.652864067066 1253 704 L 1253.54 702.6 C 1254.3552055239218 700.4447217927485 1255.334753240162 698.355242875854 1256.47 696.35 C 1258.186575031761 693.6411153734429 1260.0983061270215 691.0609468322872 1262.19 688.63 C 1263.6839291008423 686.9768986145057 1265.2911490835506 685.4298240781359 1267 684 C 1268.1426355441608 683.2085342083257 1269.3426198140016 682.5032509745195 1270.59 681.89 C 1272.2246882738289 681.2009735956883 1273.9138414913843 680.6490720493583 1275.6399999999999 680.24 C 1278.11 679.8 1280.55 679.6 1283.06 679.5600000000001 C 1285.5 679.62 1287.8799999999999 679.8100000000001 1290.28 680.22 C 1291.85 680.5500000000001 1293.34 680.98 1294.85 681.52 C 1296.6699999999998 682.28 1298.37 683.18 1300.05 684.22 C 1302.1477432495367 685.6654352676312 1304.1364317560344 687.2630707400781 1306 689 L 1307 689.9 C 1309.1828746857116 691.9277567169802 1311.1838612630468 694.1428957039299 1312.98 696.52 C 1315.5774469529313 700.4107422645677 1317.8453326687566 704.5116683524759 1319.76 708.78 C 1321.60118471608 712.7697364085769 1323.122633528623 716.8993831854797 1324.31 721.13 C 1326.1799999999998 728.39 1327.06 735.87 1327.87 743.33 C 1328.4799999999998 748.63 1328.4799999999998 748.63 1329 751 C 1329.6591159467694 753.0016282150492 1330.4611804376827 754.9533184762719 1331.4 756.84 L 1332 758 C 1334.9065328187878 759.5344175596776 1337.9133742523918 760.8707915301683 1341 762 C 1343.7 762.83 1346.41 763.33 1349.2 763.69 C 1354.25 764.19 1359.31 764.22 1364.38 764.25 L 1365.8300000000002 764.27 C 1372.0400000000002 764.3199999999999 1372.0400000000002 764.3199999999999 1375.0000000000002 764 C 1376.2403264698542 763.7376751040728 1377.462777486611 763.3969920338291 1378.6600000000003 762.98 Q 1379.8400000000004 762.53 1381.0000000000002 762 L 1381.5000000000002 761.24 L 1382.0000000000002 760 C 1382.0965954543215 758.7256475711139 1382.1432978346497 757.4480038807022 1382.1400000000003 756.17 L 1382.1500000000003 755.01 L 1382.1700000000003 752.5 Q 1382.1700000000003 750.49 1382.2100000000003 748.48 Q 1382.2900000000002 742.76 1382.3300000000002 737.04 C 1382.4 721.38 1382.4 721.38 1383.3700000000001 715.5899999999999 C 1384.2024485185623 710.9674883828542 1385.416604915825 706.4219276559114 1387 702 C 1388.947233290589 697.4696022179129 1391.2896128372975 693.119468774026 1394 689 C 1400.63 679.1 1408.67 670.22 1416.51 661.27 C 1426.15 650.27 1426.15 650.27 1429.56 644.6899999999999 C 1430.813505565682 642.5586822057262 1431.8968682895245 640.3317699400499 1432.8 638.03 C 1433.3 636.39 1433.6699999999998 634.8299999999999 1433.8899999999999 633.13 C 1434.27 629.29 1434.3899999999999 625.5 1434.1499999999999 621.64 C 1433.6779182679 616.9728116034996 1432.8012896423415 612.3554547207879 1431.53 607.84 C 1428.29 596.6700000000001 1423.37 586.12 1418.43 575.63 C 1416.590214767189 571.9179786334591 1415.0032692860727 568.0859229137951 1413.68 564.16 C 1413.26 562.5 1413.26 562.5 1413 561 C 1412.95 559.69 1413 558.49 1413.18 557.19 L 1413.38 556.0600000000001 Q 1413.45 555.46 1413.5500000000002 554.86 Q 1413.7600000000002 553.4300000000001 1414.0000000000002 552 C 1415.0578254821016 550.7655281071995 1416.1899253611407 549.596693423826 1417.3900000000003 548.5 C 1418.5234605803255 547.57003462885 1419.7307856534778 546.733936932761 1421.0000000000002 546 C 1423.5941267579856 544.9210168870694 1426.244656588093 543.9829830303186 1428.9400000000003 543.19 L 1429.9600000000003 542.87 C 1433.4457393480557 541.7709847212847 1437.0090932214543 540.935301355103 1440.6200000000003 540.37 C 1452.3400000000004 538.99 1464.7700000000004 539.44 1476.5600000000004 540.09 C 1487.8600000000004 540.87 1498.9100000000003 543.49 1509.8800000000003 546.19 C 1519.491318869455 548.5873066849149 1528.982208548017 551.4439176430194 1538.3200000000004 554.75 C 1543.3800000000003 556.54 1548.2800000000004 558.41 1553.0000000000005 561 C 1556.9800000000005 568.45 1560.0300000000004 576.04 1562.8100000000004 584 L 1563.4600000000005 585.83 C 1568.2412890350795 599.3219442619011 1572.593476757245 612.9621341344355 1576.5100000000002 626.7299999999997 C 1582.5600000000004 647.47 1582.5600000000004 647.47 1583.5100000000004 655.61 Q 1583.9100000000005 660 1583.5600000000004 664.39 C 1583.0618616363956 667.967112355292 1582.2521155430306 671.4938577371378 1581.1400000000003 674.93 Q 1580.1500000000003 677.93 1579.0800000000004 680.89 C 1577.8038686892205 684.5815110731601 1576.6366963991675 688.3097928453869 1575.5800000000004 692.07 L 1574.6100000000004 695.3299999999999 C 1573.3942786900066 699.150205267903 1572.4748877966924 703.0584523743913 1571.8600000000004 707.02 C 1571.6938540985088 708.8016130233949 1571.653754320999 710.5927364188328 1571.7400000000005 712.38 C 1571.9300000000005 714.75 1572.3200000000004 717.04 1572.8700000000006 719.36 C 1573.6659401602212 722.3237044549234 1574.7130640559171 725.2141678602953 1576 728 C 1580.6 736.96 1586.5 745.26 1592.08 753.62 Q 1597.6299999999999 761.93 1603.11 770.29 L 1605.9099999999999 774.55 L 1613.56 786.1999999999999 L 1620.1399999999999 796.2199999999999 C 1623.84 801.8399999999999 1627.59 807.42 1631.6699999999998 812.79 C 1633.3055243613499 814.9364568116364 1634.7446564969346 817.225680952892 1635.9699999999998 819.63 Q 1637.0499999999997 821.79 1637.9999999999998 824 L 1636.9999999999998 830 C 1633.788726584903 832.196734305572 1630.4494824649616 834.2002807775369 1626.9999999999998 836 C 1622.3199999999997 838.03 1617.4599999999998 839.62 1612.6299999999999 841.25 L 1603.4699999999998 844.4 C 1600.5526749223752 845.3655743934332 1597.7197772687712 846.5696395118481 1594.9999999999998 848 Q 1593.9399999999998 850.48 1592.9999999999998 853 L 1592.4199999999998 854.5 C 1591.7984316155491 856.2918317982403 1591.3235346846652 858.1312213192697 1590.9999999999998 860 C 1590.7181761121387 862.6634368818061 1590.631278239267 865.3439020373169 1590.7399999999998 868.02 C 1590.9329201300066 870.6272219742661 1591.3477554451163 873.2132518015227 1591.9799999999998 875.75 C 1592.8799999999999 879.33 1593.8999999999999 882.85 1595.1799999999998 886.31 C 1595.6599999999999 887.6199999999999 1595.6599999999999 887.6199999999999 1595.9999999999998 889 C 1596.1499999999999 891.35 1596.1299999999999 893.65 1595.9999999999998 896 C 1594.424387185359 897.5835702597182 1592.7330444691413 899.0476179073534 1590.9399999999998 900.38 C 1589.9999999999998 901 1589.9999999999998 901 1588.1999999999998 901.86 C 1584.4999999999998 903.23 1580.6599999999999 904.09 1576.8199999999997 904.96 L 1575.6899999999996 905.22 Q 1572.8599999999997 905.87 1570.0299999999995 906.47 C 1567.9988954738415 906.8928853877301 1565.987017983071 907.4033617659853 1564 908 C 1562.2570091037442 908.8669107032101 1560.5851522187177 909.870024834226 1559 911 L 1558 916 C 1561.72 917.04 1565.4 918 1569.25 918.42 L 1570.32 918.52 L 1571.4199999999998 918.64 Q 1573.6 918.85 1575.8 919.03 C 1578.23 919.23 1580.61 919.49 1583 920 C 1584.63 920.73 1584.63 920.73 1586.02 921.57 Q 1587.03 922.25 1588 923 C 1588.5 923.8 1588.5 923.8 1589 925 C 1589.1 926.5 1589.1 926.5 1589.06 928.13 L 1589.04 929.76 L 1589 931 L 1588.22 932.14 C 1580.8 943.12 1580.8 943.12 1578.77 947.4399999999999 C 1578.2213969649326 948.8019920074971 1577.7735265385681 950.2024226690401 1577.43 951.63 Q 1577.2 952.81 1577 954 L 1576.75 955.46 C 1576.22 958.98 1575.93 962.46 1575.92 966.01 C 1576.19 972.42 1577.68 978.74 1579 985 C 1581.11 995.43 1581.11 995.43 1581.31 1000.06 C 1581.26 1001.8299999999999 1581.11 1003.4599999999999 1580.78 1005.18 C 1580.112087374233 1008.195383782245 1579.181880643803 1011.1466152075667 1578 1014 Q 1576.79 1016.69 1575.18 1019.16 C 1573.9712032387815 1020.868033472864 1572.6196910422018 1022.4704452108879 1571.14 1023.9499999999999 C 1569.230614131171 1025.7936325301341 1567.177459263291 1027.482302250459 1565 1029 C 1563.319163661033 1029.9780139317795 1561.5597409834204 1030.8142414401505 1559.74 1031.5 C 1557.0895140948346 1032.2858461265575 1554.3760925898528 1032.841244363089 1551.63 1033.16 Q 1545.8500000000001 1033.6100000000001 1540.0800000000002 1033.1100000000001 C 1534.16 1032.4900000000002 1528.3500000000001 1030.97 1522.6200000000001 1029.3700000000001 C 1486.94 1019.0800000000002 1452.46 1003.3100000000002 1418.7900000000002 987.8200000000002 L 1413.15 985.2500000000001 C 1378.17 969.3000000000001 1378.17 969.3000000000001 1364.27 959.9200000000001 C 1360.8734874983443 957.5256581406264 1357.6763789401518 954.8602862568613 1354.71 951.95 C 1353.3306997053946 950.495316958462 1352.0479649493655 948.9520267051143 1350.8700000000001 947.33 C 1349.3078228065679 944.8790000757497 1347.9499107004406 942.3036495296461 1346.8100000000002 939.63 C 1343.4900000000002 931.5 1341.2200000000003 923.02 1339.3100000000002 914.47 C 1338.0046533916156 908.2701703080701 1336.8011579600125 902.0493324261544 1335.7000000000003 895.8100000000001 C 1334.0800000000004 886.9100000000001 1334.0800000000004 886.9100000000001 1332.8600000000004 883.24 L 1332 881 L 1325 880 C 1324.45 907.33 1324.45 907.33 1325.82 916.97 Q 1326.7 922.53 1328 928 L 1328.26 929.1 C 1329.6149898101587 935.1916035970823 1331.4678818842585 941.1616619946784 1333.8 946.95 C 1335.99 952.0300000000001 1338.6299999999999 956.85 1341.55 961.5500000000001 C 1342.8294754167994 963.4400073355698 1344.2608817331477 965.2225764164428 1345.83 966.8800000000001 C 1347.99 968.9500000000002 1350.4299999999998 970.6000000000001 1352.9099999999999 972.2800000000001 L 1353.7599999999998 972.8700000000001 C 1359.8030741290934 976.9444693127226 1366.0512934576363 980.7060842610497 1372.4799999999998 984.1400000000001 L 1375.2299999999998 985.6400000000001 C 1397.5499999999997 997.8600000000001 1420.5699999999997 1008.5900000000001 1444.0699999999997 1018.3300000000002 Q 1448.1099999999997 1020.0000000000001 1451.9999999999998 1022.0000000000001 L 1451.9999999999998 1024 L 1450.6999999999998 1024.44 C 1437.9699999999998 1028.8300000000002 1437.9699999999998 1028.8300000000002 1432.7699999999998 1031.68 C 1429.2580598746047 1033.7774725965255 1425.9236045976756 1036.1587485816542 1422.7999999999997 1038.8 C 1421.0529421831222 1040.3555175902302 1419.421929388782 1042.0366639745603 1417.9199999999996 1043.83 C 1415.897234481599 1046.402531167143 1414.0656651603927 1049.1198046309037 1412.4399999999996 1051.96 C 1410.7627641610363 1055.1328016846428 1409.3641787278723 1058.4452408684524 1408.2599999999995 1061.8600000000001 C 1404.9699999999996 1072.3600000000001 1402.9799999999996 1083.2 1400.9999999999995 1094.0000000000002 L 1396.9999999999995 1093.0000000000002 L 1395.6399999999996 1091.5700000000002 C 1391.8575205016764 1087.6438262439492 1387.8222368352288 1083.9693129715217 1383.5599999999997 1080.5700000000002 C 1379.5581543701312 1077.3674166985236 1375.7638437055725 1073.9137923788462 1372.1999999999998 1070.2300000000002 C 1369.905644160659 1067.8762468441705 1367.5030479163445 1065.6304867435822 1364.9999999999998 1063.5000000000002 C 1358.746837453923 1058.1104768072855 1352.9256813439 1052.2391671408866 1347.5899999999997 1045.9400000000003 C 1345.5398764973197 1043.5934435741474 1343.3843260973213 1041.341126979722 1341.1299999999997 1039.1900000000003 C 1336.7899999999997 1034.9400000000003 1333.0299999999997 1030.3000000000002 1329.2499999999995 1025.5600000000002 C 1328.1839898937312 1024.23852880956 1327.103928577642 1022.9284544354144 1326.0099999999995 1021.6300000000001 C 1312.6699999999996 1005.7300000000002 1301.3899999999996 988.0800000000003 1291.0099999999995 970.1300000000002 C 1284.9783137982918 959.4504469085095 1279.2427929172807 948.6063109172027 1273.8099999999995 937.6100000000004 L 1271.4799999999996 932.9800000000002 C 1264.0493675595762 918.0675565389288 1257.5437320990623 902.7118523051278 1252 887 L 1251.33 885.14 C 1237.9499999999998 847.7 1228.6999999999998 808.9399999999999 1219.6299999999999 765.78 L 1219.33 764.3399999999999 L 1218.73 761.43 C 1210.63 722.67 1201.85 684.26 1188.3600000000001 646.99 L 1186.96 643.09 C 1180.0093179697917 623.8633678070402 1172.1164338968108 604.9905308376078 1163.31 586.5399999999998 C 1155.0512778745879 568.8032524211557 1145.303003239692 551.7989696589127 1134.1699999999998 535.7099999999999 C 1129.5550589230722 529.3014988556508 1124.6775744563101 523.0862091418493 1119.55 517.0799999999999 C 1118.0069984798097 515.2348854918515 1116.4901800073724 513.3680319873132 1115 511.4800000000001 C 1109.5507095680518 504.73460377949067 1103.6789136385669 498.3417611122356 1097.4199999999998 492.3399999999999 C 1094.7962773486224 489.78393300495986 1092.1829225618817 487.217245267982 1089.5800000000004 484.6400000000001 C 1087.1727851999478 482.2831786194289 1084.9339512702777 479.7603135195767 1082.88 477.09000000000003 C 1082.0668027682354 476.0863335784091 1081.1739022095226 475.14995846065773 1080.21 474.29 L 1078.38 472.75 L 1076.23 470.93 L 1075.1100000000001 469.97 C 1074.0285797368695 469.0168401463449 1072.9683217198647 468.0399357470292 1071.93 467.04 C 1063.65 459.21000000000004 1054.44 452.36 1045 446 C 1038.8340489988534 442.0336778839143 1032.5512600326058 438.2519991749309 1026.1599999999999 434.6599999999999 L 1022.8100000000001 432.74 Q 1017.33 429.59000000000003 1011.8100000000001 426.54 Q 1009.5100000000001 425.29 1007.24 424 C 993.4 416.12 978.69 410.09 963.72 404.68 C 942.2573854469174 397.0054729019076 920.1766154191321 391.18417898549154 897.7200000000001 387.2800000000001 C 892.98 386.50000000000006 888.23 385.76000000000005 883.47 385.18 Q 881.85 384.98 880.24 384.74 C 872.92 383.74 865.54 383.82 858.17 383.8 L 854.7099999999999 383.79 L 843.7599999999999 383.76000000000005 Q 838.1699999999998 383.76000000000005 832.5799999999999 383.72 C 813.5799999999999 383.59000000000003 794.9799999999999 383.8 776.15 386.82000000000005 L 772.9599999999999 387.31000000000006 Q 767.6899999999999 388.12000000000006 762.4399999999999 389.19000000000005 L 760.89 389.49000000000007 C 735.6899999999999 394.52000000000004 710.91 400.99000000000007 686.93 410.24000000000007 C 665.2442901311341 418.624941413379 644.3091899557134 428.83490078304726 624.3499999999999 440.7600000000001 C 614.1816183975768 446.9305180892057 604.381656115416 453.68865221496156 595 461 C 593.1381810425844 462.45161879739175 591.2647878552269 463.88833136634366 589.38 465.3099999999999 L 588.18 466.26 C 586.5660069600775 467.46681832577775 584.8609001902496 468.54671928000215 583.0799999999999 469.49 C 580.6900063171843 470.6647353285365 578.2206237665494 471.6705325514609 575.6899999999999 472.5 C 568.26 474.7 560.4899999999999 475.9 552.89 477.35 C 544.5699999999999 478.95000000000005 536.37 480.6 528.41 483.57000000000005 C 522.2036777787405 485.89646822979745 516.1572669086562 488.6290450760565 510.30999999999983 491.7500000000001 Q 509.71999999999997 492.05000000000007 509.11999999999995 492.38000000000005 C 503.8379122164476 495.1337105059735 498.7997360397152 498.33191530342117 494.05999999999995 501.94000000000005 C 488.05319451061706 506.77593102851677 482.27999431640734 511.895057674712 476.7599999999999 517.2800000000002 L 474.2899999999999 519.58 C 472.09413117546694 521.5541084608482 470.06707749070745 523.7082711225398 468.2299999999999 526.0200000000001 C 466.4799999999999 528.5200000000001 464.9199999999999 531.1200000000001 463.3799999999999 533.7500000000001 L 462.65999999999985 534.9500000000002 C 461.0760541474765 537.6154953430336 459.5226193947085 540.2990038751757 457.99999999999994 543.0000000000001 L 457.13 544.53 C 455.3172291062352 547.9330573230513 453.8016030848483 551.4862468036537 452.6 555.15 C 451.3270662524451 558.9238104463196 450.10362793447604 562.7141356984474 448.93000000000006 566.5200000000002 C 446.42917820596927 574.2513745867631 444.5826774447955 582.1792854635416 443.40999999999997 590.22 C 442.34000000000003 598.7900000000001 442.56 607.52 442.61 616.14 Q 442.63 620.34 442.6 624.54 C 442.5 643.4499999999999 442.5 643.4499999999999 443.98 652.3399999999999 Q 444.86 657.1899999999999 446 661.9999999999999 L 446.32 663.4499999999999 C 447.01148829500636 666.544926399775 447.838956809641 669.6078945305597 448.8 672.6299999999999 C 451.17 680.4499999999999 454.44 687.8499999999999 457.88 695.2499999999999 L 458.65999999999997 696.9499999999999 C 461.10999999999996 702.2099999999999 463.57 707.42 466.55999999999995 712.4 C 469.86999999999995 718.03 469.86999999999995 718.03 471.03999999999996 720.77 C 471.43999999999994 721.84 471.73999999999995 722.88 471.99999999999994 724 C 472.69999999999993 729.18 472.5799999999999 734.43 472.3999999999999 739.64 Q 472.24999999999994 743.31 471.99999999999994 747 L 469.99999999999994 749 Q 467.0199999999999 749.37 463.99999999999994 749.33 C 462.59999999999997 749.23 462.59999999999997 749.23 460.99999999999994 749 C 455.8999999999999 747.68 450.93999999999994 745.84 445.99999999999994 744 C 448.21999999999997 749.15 450.49999999999994 754.34 453.40999999999997 759.14 C 453.99999999999994 760 453.99999999999994 760 455.13 761.27 C 456.18137219634025 762.1724319662611 457.3089175183572 762.982123265751 458.5 763.6899999999999 Q 460.15 764.6199999999999 461.87 765.43 C 463.86 766.43 465.69 767.67 467.57 768.88 L 471 771 C 470.7183934766133 773.4662425054308 470.26055611841116 775.9091557086845 469.63 778.31 C 467.48 784.43 464.48 790.17 461.33 795.81 C 455.82076673730853 805.4083556768181 449.57184561758766 814.5627409233647 442.64 823.1899999999999 L 439.89 826.7199999999999 C 437.04590163880306 830.353899990612 434.0980196001016 833.9053642114457 431.04999999999995 837.3699999999999 L 429.47 839.1899999999999 L 426.39000000000004 842.65 C 424.13584308096745 845.144381884216 422.09532752858826 847.8238129620123 420.28999999999996 850.66 Q 418.09000000000003 854.3 416 858 Q 415.85 862.94 415.78 867.87 L 415.7 871.22 C 415.59 874.82 415.5 878.4200000000001 416 882 C 416.28 883.11 416.28 883.11 416.63 884.1 C 417.52 885.84 417.52 885.84 418.63 887.44 C 420.46479741319473 889.6109699928973 422.4712691407061 891.630818198592 424.63 893.48 C 426.46896828756365 894.9611609294002 428.4216649078671 896.2952807093678 430.46999999999997 897.47 C 433.0960288553721 898.8730856175355 435.7533713281499 900.2167606696427 438.4399999999999 901.4999999999999 C 447.14 905.73 447.14 905.73 450.31 907.9 C 453.4538462810473 910.1254832413673 456.44089553238456 912.5645726747858 459.25 915.1999999999999 L 460 915.9999999999999 Q 460.72 918.9299999999998 461 921.9399999999999 C 461 922.9999999999999 461 922.9999999999999 460.85 924.04 Q 460.49 925.65 460.06 927.25 C 459.406543885667 929.6814913331525 458.9583041694271 932.1635351350182 458.72 934.67 C 458.5907431104327 936.9925075637764 458.61746980759557 939.3210710540942 458.8 941.64 C 459 943 459.29 944.25 459.69 945.5699999999999 C 460.44512005654707 947.7039048075067 461.32668131184624 949.7909342944839 462.33 951.8199999999999 C 462.9816900112818 952.9468945147838 463.71709144768107 954.0232547989682 464.53 955.04 C 465.66352968062205 956.4983201128337 466.7119398992837 958.0208521501257 467.66999999999996 959.5999999999999 C 468.21999999999997 960.7599999999999 468.65 961.7699999999999 468.99999999999994 962.9999999999999 C 470.4599999999999 970.5199999999999 470.6499999999999 978.3599999999999 470.99999999999994 985.9999999999999 C 472.8550797256217 988.772341567604 474.85797441827407 991.4428678244739 476.99999999999994 993.9999999999999 C 478.77491167184996 995.5370514764363 480.67857597060595 996.9187972679763 482.68999999999994 998.1299999999999 Q 484.81999999999994 999.4299999999998 486.81999999999994 1000.9199999999998 L 488 1002 C 488.96 1003.26 488.96 1003.26 489.77 1004.68 C 490.45 1006.25 490.45 1006.25 491 1008 C 492.46 1015.26 492.25 1022.87 492.44 1030.25 L 492.48 1031.98 C 492.63 1038.38 492.96000000000004 1044.68 493.92 1051.02 L 494.16 1052.6 C 494.6397073111024 1055.5387005402445 495.3758528381978 1058.4297447921097 496.36 1061.24 C 496.91020124464256 1062.7930131438102 497.55130923290153 1064.3123055118197 498.28000000000003 1065.79 C 499.31762694029044 1067.5433704770235 500.4876987058491 1069.2149015706789 501.78000000000003 1070.79 Q 502.83000000000004 1071.96 504.00000000000006 1073 C 505.82000000000005 1074.3 507.78000000000003 1075.3 509.7900000000001 1076.27 L 510.8300000000001 1076.76 Q 512.3900000000001 1077.5 513.94 1078.27 L 515.99 1079.27 L 516.89 1079.71 C 519.5055703169803 1080.8953362160933 522.2148336023763 1081.8619745981666 524.99 1082.6000000000001 C 526.39 1082.91 527.75 1083.1000000000001 529.19 1083.2 C 531.6600000000001 1083.3 534.1300000000001 1083.3 536.61 1083.3 L 539.39 1083.31 L 545.23 1083.31 Q 548.15 1083.31 551.08 1083.34 C 562.13 1083.4399999999998 572.9200000000001 1083.1 583.84 1081.31 C 590.5566108895204 1080.1265404262576 597.2420975697434 1078.7727710536042 603.8899999999999 1077.25 C 622.49 1073.11 622.49 1073.11 630.12 1072.68 C 637.42 1072.3700000000001 644.72 1072.5600000000002 652 1073 Q 652.18 1079.24 652.26 1085.47 Q 652.29 1088.3700000000001 652.38 1091.27 C 652.68 1101.83 652.68 1101.83 652 1107 C 651.2 1111.28 649.8 1115.4 648.33 1119.49 L 647 1123 L 646.02 1125.73 C 645.0530174929079 1128.3449073621362 644.0058559913085 1130.929462023727 642.88 1133.48 C 638.9258555204204 1142.685752759388 634.1884506594795 1151.5349306246342 628.72 1159.93 C 622.97 1168.55 616.01 1176.3200000000002 608.99 1183.92 Q 606.77 1186.3600000000001 604.63 1188.88 C 593.4 1201.74 581.75 1215 568.5 1225.8300000000002 L 564.62 1228.89 C 561.3063369224361 1231.5707374750948 558.1100240452444 1234.3933686797966 555.04 1237.3500000000001 L 553.51 1238.7500000000002 Q 549.85 1242.1600000000003 546.06 1245.4400000000003 C 543.4345673655616 1247.7052598024607 540.8573247283209 1250.0257783995105 538.3299999999998 1252.4000000000003 L 535.04 1255.4700000000003 C 531.0771085224712 1259.147874168547 527.0224975522516 1262.7256682236834 522.88 1266.2000000000003 C 515.55 1272.3800000000003 508.27 1278.7000000000003 502 1286.0000000000002 C 497.35259021215944 1291.7630007549847 492.9487267383621 1297.7182252252333 488.80000000000007 1303.8500000000001 L 486.52000000000004 1307.1100000000001 C 477.78000000000003 1319.65 470.44000000000005 1333.15 464.00000000000006 1347.0000000000002 C 461.59017895116796 1352.5135831568678 459.5848807342969 1358.1952614380025 458.00000000000006 1364.0000000000002 L 457.61000000000007 1365.3600000000001 Q 456.11000000000007 1370.67 454.69000000000005 1376.0000000000002 L 454.2900000000001 1377.4700000000003 L 453.19000000000005 1381.6900000000003 L 452.88000000000005 1382.9100000000003 C 451.9648230280607 1386.77861494902 451.36287497873695 1390.7146863604314 451.08000000000004 1394.6800000000003 C 450.78000000000003 1399.2800000000002 450.81000000000006 1403.8900000000003 450.80000000000007 1408.5000000000002 L 450.7900000000001 1410.2800000000002 Q 450.7600000000001 1414.9300000000003 450.7600000000001 1419.6200000000001 Q 450.7600000000001 1423.42 450.7200000000001 1427.21 C 450.5100000000001 1451.24 450.5100000000001 1451.24 452.1300000000001 1461.06 C 453.1100000000001 1466.59 454.2800000000001 1472.1299999999999 456.1400000000001 1477.4199999999998 L 457.3700000000001 1480.7499999999998 C 460.1300000000001 1488.3799999999999 463.5100000000001 1495.7399999999998 467.0000000000001 1503.0599999999997 L 467.7400000000001 1504.6299999999997 C 471.30753151932015 1512.0388465832727 475.4048296651743 1519.180711295908 480 1526 L 483 1527 L 482.79 1526 C 480.8350728215963 1516.2890606726435 479.2406456678354 1506.5090179638 478.01000000000005 1496.68 L 477.61000000000007 1493.74 L 476.87000000000006 1488.07 L 476.65000000000003 1486.4099999999999 C 475.4771369484848 1477.4969708869405 474.85927961570934 1468.5196708301812 474.8 1459.5299999999997 L 474.79 1458.0999999999997 L 474.76000000000005 1450.5599999999997 Q 474.76000000000005 1447.5199999999998 474.72 1444.4799999999998 C 474.61 1434.2399999999998 474.62 1424.0899999999997 476.23 1413.9599999999998 C 477.6433670892821 1405.8734650718764 479.7409033519788 1397.921561249819 482.5 1390.1899999999998 L 483.15 1388.2699999999998 C 486.75 1377.6699999999998 491.06 1367.4699999999998 496.4 1357.5999999999997 C 499.5304947618848 1351.8195207000258 503.0729801760486 1346.2718548627506 507 1341 L 507.92 1339.77 C 510.4133179521647 1336.5173804151461 512.9942640384322 1333.3328797531492 515.6599999999999 1330.22 C 522.1521428761077 1322.4546108434065 528.8443882668527 1314.858728930045 535.73 1307.44 L 539.73 1303.1200000000001 C 550.99 1290.8500000000001 562.62 1279.49 575.64 1269.0900000000001 L 582.6899999999999 1263.38 L 584.06 1262.25 Q 590.13 1257.25 596 1252 L 599 1253 C 598.1300673594077 1255.3055385130438 597.0801638786976 1257.5390911407962 595.86 1259.68 C 594.17 1262.28 592.1 1264.55 590.0600000000001 1266.88 C 580.7037272044032 1277.7438985426045 572.315125846125 1289.4049578699278 564.99 1301.73 C 545.78 1333.8600000000001 545.78 1333.8600000000001 539.16 1350.79 C 536.74 1357.3899999999999 534.66 1364.1299999999999 532.56 1370.84 L 531.66 1373.7099999999998 Q 530.79 1376.4499999999998 529.9599999999999 1379.2099999999998 L 529.4499999999999 1380.8299999999997 C 527.878327813619 1385.7814347747826 526.7242910174746 1390.8558516436267 526 1396 C 525.67 1400.16 525.72 1404.32 525.73 1408.49 L 525.73 1419.53 Q 525.75 1424.21 525.73 1428.8899999999999 C 525.69 1442.6699999999998 526.09 1456.2299999999998 527.6700000000001 1469.9199999999998 Q 528.1800000000001 1474.56 528.3100000000001 1479.2499999999998 L 528.35 1480.4499999999998 C 528.36 1481.4499999999998 528.36 1481.4499999999998 528.25 1482.61 C 527.7327396457839 1485.283529758527 526.993513443026 1487.9092879900422 526.04 1490.4599999999998 C 524.3499999999999 1494.7899999999997 522.01 1498.7999999999997 519.74 1502.85 Q 517.51 1506.82 515.34 1510.83 L 514.47 1512.4399999999998 C 508.30401137056 1523.6117537063787 503.1308145490553 1535.303312370245 499.01 1547.3799999999999 C 495.53330781371056 1557.8751591189032 492.1963460732149 1568.416091210259 489.00000000000006 1578.9999999999998 L 484 1580 L 481.97 1578.1 L 480.12 1576.36 L 474.82 1571.3899999999999 Q 469.33 1566.2399999999998 463.83 1561.12 C 441.03 1539.9099999999999 441.03 1539.9099999999999 432.29999999999995 1528.87 C 429.9 1525.84 427.36999999999995 1522.9399999999998 424.84 1520.02 C 418.94 1513.22 413.38 1506.22 408 1499 L 407.35 1498.13 C 400.0446351550643 1488.2776918017955 392.8871666030403 1478.3165758104367 385.8799999999999 1468.25 L 383.08 1464.28 C 371.34 1447.56 359.90999999999997 1430.72 349.62 1413.07 L 347.68 1409.77 C 325.79 1372.55 306.81 1333.37 291.71000000000004 1292.91 C 283.88000000000005 1271.8600000000001 276.73 1250.74 271.00000000000006 1229 L 270.51000000000005 1227.16 C 264.6237739160562 1204.608937514857 259.45119577872555 1181.8776076734348 255.00000000000006 1159.0000000000002 L 254.78 1157.88 C 251.50346390193423 1141.6673372554017 248.80177278236843 1125.3437862194073 246.6800000000001 1108.94 L 246.44 1106.99 C 244.34 1090.21 243.84 1073.59 243.87 1056.71 L 243.87 1034.8500000000001 C 243.88924361504186 1025.0966761587215 243.88924361504186 1015.3433238412767 243.87 1005.589999999998 L 243.87 997.5400000000002 C 243.85 986.6800000000002 243.97 975.8500000000001 244.47 965.0000000000002 L 244.53 963.6300000000002 C 244.9 955.7300000000002 245.57 947.9100000000002 246.56 940.0600000000002 L 246.81 938.0600000000002 C 250.69 906.7900000000002 256.18 875.5700000000002 263.76 844.9800000000001 L 264.76 840.8500000000001 C 274.06 802.8300000000002 285.46999999999997 765.2500000000001 301.18 729.3400000000001 L 304 723 L 304.73 721.36 C 311.18689480885035 706.9620235807524 317.9956047196777 692.7244176457709 325.1500000000001 678.6600000000001 Q 327.12000000000006 674.79 329.01000000000005 670.89 C 343.7300000000001 640.59 362.03000000000003 611.6899999999999 381.76000000000005 584.41 C 387.0630402408241 577.1903407697877 392.4770162710126 570.0528268038806 397.99999999999994 563.0000000000005 L 398.73 562.05 C 412.85 543.8499999999999 427.33000000000004 525.9599999999999 443.13 509.19999999999993 C 446.11 506.0399999999999 449.05 502.85999999999996 451.88 499.55999999999995 C 454.4701744058811 496.5856521492828 457.1894497011693 493.72624242159935 460.03 490.98999999999995 Q 463.25 487.80999999999995 466.19 484.37999999999994 C 469.79234446012254 480.1981318661135 473.4763866665558 476.0873408792065 477.23999999999995 472.05 C 480.58529079302565 468.37573195601493 484.1519347274973 464.9092746489161 487.91999999999996 461.66999999999996 Q 491.54 458.54999999999995 495.01 455.23999999999995 L 496.01 454.28 L 498.07 452.32 C 505.7987748927185 444.9398863316829 513.7802015298486 437.8289788555603 522 430.99999999999994 L 522.94 430.22 C 533.7107400852711 421.2607063640196 544.7768737506293 412.6626073316829 556.1199999999994 404.44000000000057 C 567.3328220776992 396.22069080968157 578.7670468652917 388.3077670940335 590.4100000000001 380.7099999999999 Q 593.51 378.67 596.5899999999999 376.61 C 632.3299999999999 352.74 670.7599999999999 332.03000000000003 713.6899999999999 312.67 C 753.18 295.32 795.03 281.65000000000003 841.54 270.13 C 873.3263173358612 262.4019129032212 905.5153848558638 256.4361523080911 937.9599999999997 252.26 L 943.6199999999999 251.51999999999998 C 988.9699999999999 245.58999999999997 1035.02 245.46999999999997 1131.6399999999999 254.48999999999998" stroke-linecap="round" />
</g>
		<g transform="matrix(0.16336861567344504 0 0 0.16336861567344504 -5.555442833706664 26.222353313342524)"  >
<path style="stroke: none; stroke-width: 1; stroke-dasharray: none; stroke-linecap: butt; stroke-dashoffset: 0; stroke-linejoin: miter; stroke-miterlimit: 4; fill: rgb(254,254,254); fill-rule: nonzero; opacity: 1;"  paint-order="stroke"  transform=" translate(-990.1566774060674, -1184.5)" d="M 519 577 L 523 579 C 523.75 583.7 524.18 588.3 524.36 593.06 L 524.59 598.1899999999999 C 525.14 609.88 525.9200000000001 621.4 528.44 632.8699999999999 C 531.22 645.1099999999999 535.0200000000001 657.1099999999999 539 668.9999999999999 L 539.4 670.1999999999999 C 544.66 685.9999999999999 551.8 701.4 559.63 716.0799999999999 C 566.15 728.1199999999999 574.06 739.42 582.47 750.2099999999999 Q 585.1 753.4899999999999 587.84 756.65 Q 589.4200000000001 758.49 590.96 760.35 C 597.4894325894688 768.1113754871338 604.2765579542144 775.6522553149913 611.3100000000001 782.96 C 614.45 786.26 617.5400000000001 789.58 620.5100000000001 793.0300000000001 C 624.0029815792469 797.0131198213102 627.649052240099 800.8593407471678 631.4399999999999 804.56 L 632.44 805.5600000000001 C 636.7942710506918 809.9492339760162 641.3316322303377 814.1529656571587 646.0400000000002 818.1600000000001 Q 648.32 820.1600000000001 650.5400000000001 822.22 C 654.3800000000001 825.72 658.2700000000001 829.07 662.3100000000001 832.32 C 666.7944116774601 835.9727346403021 671.1375813767178 839.7955245599253 675.3299999999999 843.78 C 678.87837970175 847.1282922161731 682.5614210759903 850.3309368894256 686.3699999999999 853.3800000000001 C 691.32 857.3100000000001 695.89 861.5800000000002 700.47 865.9200000000001 C 704.9225670835937 870.1487978193087 709.553440509959 874.1857984287483 714.3499999999999 878.02 C 717.22 880.32 719.86 882.7200000000001 722.4 885.3700000000001 C 724.4 887.4400000000002 726.5 889.3400000000001 728.6899999999999 891.2100000000002 C 733.0355100558915 895.0094809106075 737.2448252813207 898.9619678695091 741.3099999999997 903.0600000000001 L 742.43 904.1800000000002 C 748.9513769496635 910.7008452012652 754.9561224657384 917.7186407682148 760.39 925.1700000000001 Q 761.29 926.4100000000002 762.23 927.6400000000002 C 773.24 942.2200000000003 782.41 958.1400000000002 790.77 974.3700000000002 C 795.7008536801723 983.8720849271841 799.7930448540203 993.7863632984936 803 1004 C 805.6220148791159 1012.9226757945934 807.956553557124 1021.9273249811963 810 1031 L 810.25 1032 C 810.69 1033.9 810.98 1035.75 811.11 1037.7 C 811.1935581718815 1040.492564456856 811.2368959987041 1043.2861874474193 811.24 1046.0800000000002 L 811.32 1055.0200000000002 Q 811.37 1061.2400000000002 811.3900000000001 1067.4800000000002 Q 811.4100000000001 1074.6200000000003 811.5100000000001 1081.7800000000002 C 811.9300000000001 1114.0700000000002 811.9300000000001 1114.0700000000002 810.1600000000001 1125.1900000000003 C 808.9469767187227 1131.7689779367715 807.3577015112734 1138.2729865588542 805.4000000000001 1144.6700000000003 Q 804.83 1146.6000000000004 804.2900000000001 1148.5200000000002 Q 802.3100000000001 1155.6100000000001 799.9200000000001 1162.5700000000002 L 798.8100000000001 1165.8700000000001 C 792.1072997084833 1185.6085904129409 783.7440474182704 1204.7437116529484 773.8100000000002 1223.0700000000002 C 771.6553571656756 1226.98158778046 769.387737468481 1230.829871795993 767.0100000000001 1234.6100000000001 C 758.3900000000001 1248.5500000000002 747.7900000000001 1261.3100000000002 737.0400000000001 1273.64 C 735.2085602587838 1275.7625713332752 733.4215064350739 1277.923039388805 731.68 1280.1200000000003 C 727.6061710144502 1285.162074552096 723.3362250607081 1290.0424893414122 718.8800000000001 1294.7500000000002 L 718.0000000000001 1295.6900000000003 Q 713.3600000000001 1300.6700000000003 708.5000000000001 1305.4500000000003 Q 705.0500000000001 1308.8800000000003 701.9000000000001 1312.5900000000004 C 697.0400000000001 1318.2700000000004 691.6700000000001 1323.4900000000005 686.3800000000001 1328.7600000000004 Q 684.1100000000001 1331.0000000000005 681.8600000000001 1333.2800000000004 C 676.2400000000001 1338.9200000000005 670.6200000000001 1344.5000000000005 664.5600000000002 1349.6600000000005 C 662.6175250398909 1351.3447972400825 660.7618050202292 1353.1270894891816 659 1355 C 655.1642365535175 1358.8419015090262 651.1603190854794 1362.5121591880613 647 1366 L 641.04 1371.09 L 639.1999999999999 1372.6699999999998 C 635.4164419133115 1375.8889959134806 631.6826661390793 1379.1660509010433 628.0000000000002 1382.4999999999995 C 624.1356170928594 1385.995799693982 620.2185010555711 1389.4328606594665 616.25 1392.8099999999997 L 615.3599999999999 1393.5699999999997 C 610.774527198881 1397.5003775570194 606.1744955723242 1401.4137377958446 601.5600000000004 1405.31 L 600.66 1406.0799999999997 C 597.3807586558494 1408.8113203627538 594.2401691980064 1411.7049346666324 591.25 1414.7499999999998 C 588.5950249815575 1417.463202784584 585.776418345556 1420.011303333481 582.81 1422.3799999999999 L 581.55 1423.4199999999998 C 580.4187553011318 1424.3494807358734 579.2333374296387 1425.2109956960007 578 1426 C 576.81 1426.45 576.81 1426.45 575.7 1426.73 L 574 1427 L 573 1425 C 578.87 1410.75 584.89 1396.67 593.11 1383.6 C 599.0777408169425 1374.2738129445013 605.5820225137078 1365.3020445054826 612.5899999999999 1356.73 Q 614.7900000000001 1354.03 616.97 1351.29 L 617.72 1350.35 L 619.24 1348.4499999999998 L 621.52 1345.6 Q 625.15 1341.1 628.72 1336.54 L 629.38 1335.68 L 630.71 1333.98 C 635.71 1327.58 640.84 1321.29 646.01 1315.04 C 649.3510556759613 1311.0196087648621 652.647920584184 1306.962698154845 655.9000000000001 1302.87 Q 658.9499999999999 1299.04 662.1 1295.28 C 676.7 1277.83 689.97 1259.7 701.34 1239.96 C 708.14 1228.06 714.2900000000001 1215.9 719 1203 C 720.6776175210729 1198.435997618348 722.0998185651823 1193.7821284740085 723.26 1189.06 C 723.66 1187.3899999999999 723.96 1185.74 724.06 1184.03 C 724.18 1181.17 724.1899999999999 1178.31 724.1999999999999 1175.45 L 724.2099999999999 1174.05 L 724.2399999999999 1166.7 Q 724.2399999999999 1163.71 724.2799999999999 1160.73 C 724.4799999999999 1142.92 724.4799999999999 1142.92 723.2299999999999 1135.2 C 722.3699999999999 1130.25 721.2699999999999 1125.3 719.68 1120.53 Q 719.02 1118.79 718.31 1117.06 L 717.54 1115.11 C 716.7191853790949 1113.0626822903898 715.8724506842543 1111.0258519811473 715 1109 L 714.54 1107.92 C 711.77 1101.42 708.92 1094.88 705.0999999999999 1088.91 C 703.2024505200442 1086.1713539114025 701.1664731576784 1083.5312586759414 698.9999999999999 1081 L 697.7499999999999 1079.5 C 694.3347458147846 1075.3204529119355 690.6109785538014 1071.402809079016 686.6099999999999 1067.78 C 683.586605172846 1065.275163294587 680.3736540676571 1063.0083778114254 677 1061 C 673.8910541290805 1059.2340019672997 670.6476639472323 1057.7159616141462 667.3 1056.46 C 665.0023835347291 1055.6103656314983 662.6418580621239 1054.9416615316102 660.24 1054.46 C 654.1800000000001 1053.58 648 1053.7 641.9 1053.8600000000001 Q 635.13 1054.0900000000001 628.38 1054.73 L 627.04 1054.85 C 616.12 1055.8999999999999 605.4399999999999 1058.04 594.6999999999999 1060.25 Q 588.6299999999999 1061.5 582.54 1062.71 L 578.38 1063.57 C 572.14 1064.84 565.96 1065.9199999999998 559.58 1066.1699999999998 L 556.23 1066.2399999999998 L 554.38 1066.2599999999998 L 550.56 1066.2999999999997 Q 548.63 1066.2999999999997 546.7099999999999 1066.3599999999997 C 542.4599999999999 1066.4599999999996 538.2199999999999 1066.5299999999997 533.9999999999999 1065.9999999999998 C 532.0941373770082 1065.5701030918121 530.2276171065429 1064.9813798523821 528.4199999999998 1064.2399999999998 C 526.3332243229958 1063.2990796759113 524.3149478334913 1062.2130865317242 522.3799999999999 1060.9899999999998 C 521.0816224781504 1060.0296782067671 519.8457831870861 1058.987565074843 518.6799999999998 1057.87 L 517.5099999999999 1056.8799999999999 C 516.3199999999998 1055.8 516.3199999999998 1055.8 515.1899999999998 1054.55 C 513.7243500203678 1052.6437464304872 512.4071494143684 1050.627827736534 511.24999999999983 1048.52 C 510.3398390950717 1046.7494210362288 509.5869463005763 1044.9023240470667 509 1043 C 508.4896185793302 1039.7859236432535 508.25542957388063 1036.534042024725 508.3 1033.28 L 508.31 1031.56 C 508.31 1028.58 508.23 1025.6 508.16 1022.6199999999999 L 508.13000000000005 1020.8599999999999 C 508.01000000000005 1015.1899999999999 507.68000000000006 1009.6099999999999 506.71000000000004 1004.0199999999999 C 506.2992200941085 1002.0540688022809 505.75121179426316 1000.1193321827052 505.07000000000005 998.2299999999999 Q 504.03000000000003 995.6999999999999 502.64000000000004 993.3599999999999 C 500.7210143379684 990.5752850921538 498.5843233579569 987.9470548726091 496.25 985.4999999999999 C 495.13071545555107 984.3196980961467 494.00066827276424 983.1496492431727 492.86000000000007 981.9899999999999 L 492 981 C 491.39 979.97 491.39 979.97 491 979 C 490.9 977.5 490.9 977.5 490.94 975.88 L 490.96 974.24 L 491 973 L 494.6 966.82 C 495.35752943352946 965.5204724070259 496.15796982291675 964.2464381205845 497 963 C 497.9384150253626 961.9402551414163 498.9402551414163 960.9384150253626 500 960 L 501 956 L 499.88 955.68 C 498.23323501807664 955.1801776743746 496.60546226308526 954.6197968898695 495 954 C 493.0703489547982 952.9733719167817 491.1945574622899 951.8485645627331 489.38 950.63 L 487.96999999999997 949.74 C 486.1687544702382 948.6057945870697 484.4449492159956 947.3530291406726 482.80999999999995 945.99 C 481.7896962814402 945.0753768519129 480.8495947644747 944.0750553089496 480 943 C 479.45 941.62 479.45 941.62 479 940 C 478.9 938.55 478.9 938.55 478.93 937.02 L 478.96 935.27 L 479.01 933.39 L 479.05 930.43 L 479.17 923.18 L 479.24 919.1099999999999 Q 479.25 917.1899999999999 479.31 915.2899999999998 C 479.32 913.4899999999999 479.26 911.7899999999998 479 909.9999999999999 C 478.41241381914625 908.1224547311978 477.68711200739466 906.2908169761753 476.83 904.5199999999999 C 476 902.9999999999999 476 902.9999999999999 475.03 901.6199999999999 C 474.08 900.4899999999999 474.08 900.4899999999999 472.78 899.2999999999998 C 468.02 895.6199999999999 462.29999999999995 893.0399999999998 457.01 890.2399999999999 C 447.84999999999997 885.3499999999999 447.84999999999997 885.3499999999999 444.68 883.0399999999998 C 442.5917307750517 881.3714447361315 440.57969106959325 879.6096587253818 438.65000000000003 877.7599999999999 L 438 877 C 437.42 875.98 437.42 875.98 437 875 C 436.89 873.86 436.89 873.86 436.9 872.62 L 436.90999999999997 871.27 L 436.93999999999994 869.87 L 436.94999999999993 868.46 L 436.99999999999994 865 C 438.77922662090106 861.5390778135364 440.78352824530907 858.1985751061898 442.99999999999994 855 Q 445.25999999999993 852.3 447.62999999999994 849.7 C 456.24999999999994 840.13 463.2099999999999 829.36 470.0799999999999 818.48 C 476.13999999999993 808.77 482.3299999999999 798.76 486.75999999999993 788.1800000000001 C 488.41999999999996 783.8700000000001 489.87999999999994 779.48 490.99999999999994 775.0000000000001 C 492.04999999999995 769.2100000000002 492.0199999999999 763.3200000000002 492.05999999999995 757.4500000000002 Q 492.05999999999995 746.9700000000001 491.24999999999994 736.5000000000001 L 491.12999999999994 734.8200000000002 C 490.43586258518985 726.1660411815573 489.1899959054047 717.5652189283489 487.39999999999986 709.07 C 486.08079342421155 702.9796406518433 485.2911803401121 696.7865312507068 485.0399999999999 690.5600000000002 L 485 689 L 484.94 687.34 C 484.58 676.84 485.14 666.26 486.56 655.84 C 487.97561132784824 646.7335645592779 490.1293751799582 637.7573189396147 493 629 C 497.4 615.75 502.55 602.49 509.18 590.17 C 510.9135872994202 587.0284953983701 512.8931016697156 584.0291298744596 515.1 581.1999999999999 C 516.3169378568233 579.7251040883208 517.6191649596796 578.3227056698603 519 576.9999999999999 M 861 1004.9999999999999 L 865 1005.9999999999999 C 870.7650027954336 1015.0815288397505 876.1008659531325 1024.4284661159945 880.99 1034.0099999999998 C 886.92 1045.54 892.5600000000001 1057.08 896.46 1069.46 C 900.2064016293018 1081.5628493838215 903.1823607296828 1093.890868507846 905.3700000000001 1106.3700000000001 L 905.62 1107.7500000000002 C 907.51 1118.7500000000002 908.16 1129.7300000000002 908.13 1140.8800000000003 L 908.13 1159.7200000000003 C 908.2 1195.3400000000001 908.2 1195.3400000000001 905.31 1212.0000000000002 L 905.05 1213.5500000000002 C 901.270483882045 1236.145361061105 895.5663858132128 1258.376288725263 888 1280 L 887.49 1281.47 C 879.72 1303.63 869.23 1324.6000000000001 858.95 1345.67 C 851.7396603840562 1360.3383148757714 844.7554999918668 1375.1167315910816 838 1390 L 837.25 1391.66 C 828.05 1412.0400000000002 820.24 1432.8600000000001 813 1454 L 812.4 1455.75 C 808.1844218541551 1468.3229897244075 804.7905998951156 1481.1567141010112 802.24 1494.17 L 800.85 1501.03 C 799.6193511313738 1507.530103416191 798.9568506591526 1514.1249944805745 798.87 1520.74 Q 798.83 1525.19 798.83 1529.65 L 798.83 1533.5800000000002 Q 798.8100000000001 1537.68 798.82 1541.7800000000002 L 798.7900000000001 1550.0500000000002 C 798.71 1567.15 798.9000000000001 1583.9500000000003 801.7800000000001 1600.8500000000001 Q 802.4200000000001 1604.3100000000002 803.1800000000001 1607.7500000000002 L 803.5100000000001 1609.2400000000002 C 806.6296179227929 1623.961107204877 811.0262515142442 1638.3823330642033 816.6500000000001 1652.3400000000001 C 820.6617026987277 1662.1582503111097 825.1333172951195 1671.7822327708066 830.0500000000001 1681.1800000000003 Q 831.2500000000001 1683.46 832.3900000000001 1685.78 C 836.8283575888481 1694.5920577264853 842.0210673124714 1703.003444482406 847.9100000000001 1710.92 C 851.7661227168026 1716.0310113122346 855.8260644974076 1720.985007650935 860.0800000000002 1725.77 Q 862.84 1728.98 865.46 1732.3 C 869.19 1736.98 873.13 1741.27 877.4100000000001 1745.44 C 879.8598767700004 1747.819342315708 882.1862585633584 1750.3226225811577 884.3800000000001 1752.94 C 889.3900000000001 1758.8600000000001 895.3300000000002 1764.0700000000002 901.2600000000001 1769.06 Q 904.1700000000001 1771.44 907.1300000000001 1773.74 C 911.0100000000001 1776.77 914.8100000000001 1779.89 918.6300000000001 1783 L 920.8200000000002 1784.78 L 926 1789 L 925 1792 C 921.2902131105974 1791.5973156903035 917.6141054054939 1790.928932471194 914 1790 C 909.87 1788.54 905.97 1786.53 902.06 1784.56 L 898.77 1782.94 C 895.5007741982938 1781.3182904567348 892.2440120883026 1779.6715755311097 888.9999999999998 1778 L 887.56 1777.26 C 872.0131809008029 1769.2567020568006 857.1908217473494 1759.9182811996247 843.26 1749.35 C 831.86 1740.52 821.3199999999999 1730.82 810.93 1720.85 L 806.5899999999999 1716.75 C 801.898339623587 1712.4028489664354 797.5984140701227 1707.6511802614398 793.7399999999999 1702.55 C 791.4266504454837 1699.4142557790644 789.1794871848507 1696.2302188148144 787 1693 L 785.94 1691.43 C 777.57 1678.89 770.58 1665.0700000000002 764.34 1651.3700000000001 C 758.84 1638.8000000000002 755.3100000000001 1625.39 751.69 1612.19 L 751.2900000000001 1610.77 L 749.8800000000001 1605.55 C 749.0444321572919 1602.4113738674084 748.4164073552943 1599.2211414955589 748 1596 C 747.84 1593.64 747.79 1591.28 747.75 1588.92 L 747.7 1586.8500000000001 L 747.6 1581.2800000000002 L 747.5400000000001 1577.7600000000002 L 747.35 1566.6700000000003 Q 747.27 1560.9800000000002 747.15 1555.2900000000002 C 746.47 1523.2000000000003 746.47 1523.2000000000003 747.9399999999999 1513.64 C 748.4899999999999 1510.39 749.2099999999999 1507.2 749.9999999999999 1504 L 750.5999999999999 1501.46 C 752.0791573520693 1495.4154942988068 753.6660767241559 1489.3978693689405 755.3599999999999 1483.4100000000003 L 756.8899999999999 1477.7900000000002 C 761.1499999999999 1461.9700000000003 766.2099999999999 1446.4900000000002 773.1199999999999 1431.6100000000001 L 774.4399999999999 1428.8100000000002 L 775.8699999999999 1425.7300000000002 Q 781.1699999999998 1414.3800000000003 786.8699999999999 1403.2200000000003 Q 790.3699999999999 1396.3400000000001 793.81 1389.4400000000003 L 794.5899999999999 1387.8900000000003 Q 800.4499999999999 1376.1700000000003 806.05 1364.3300000000004 Q 810.03 1355.9000000000003 814.24 1347.6000000000004 C 828.05 1320.4700000000003 840.8 1292.7000000000003 851 1264.0000000000005 L 851.63 1262.2200000000005 C 860.610000651559 1236.926890598827 867.3492711500201 1210.893363052637 871.7700000000001 1184.4200000000005 C 874.0864071679008 1169.9931446533742 875.2235023670062 1155.401537730736 875.17 1140.7900000000004 L 875.17 1137.8000000000004 Q 875.1899999999999 1133.1200000000003 875.18 1128.4200000000003 L 875.2099999999999 1120.0200000000002 C 875.31 1098.6200000000001 874.8499999999999 1077.3400000000001 871.3 1056.1900000000003 L 870.37 1050.8000000000002 C 868.4414882377232 1039.405314947721 865.7860666094422 1028.1456592132115 862.4199999999998 1017.09 C 861.0799999999999 1012.6400000000001 861.0799999999999 1012.6400000000001 860.8399999999999 1010.7900000000002 Q 860.81 1009.4300000000002 860.8699999999999 1008.0600000000002 L 860.9299999999998 1006.2900000000002 z M 1190 971.9999999999999 L 1194 972.9999999999999 L 1196.62 979.0999999999999 L 1197.02 980.05 Q 1199.66 986.1999999999999 1202.26 992.3499999999999 C 1210.06 1010.81 1217.97 1029.25 1228.83 1046.1499999999999 C 1234.4767344569411 1054.7254248984977 1240.5406867084644 1063.018722281566 1247 1071 L 1249.2 1073.79 C 1253.7687885175046 1079.4624195241333 1258.5660752656788 1084.9469392835201 1263.5800000000002 1090.23 Q 1267.5500000000002 1094.47 1271.38 1098.8600000000001 C 1274.8118051738252 1102.7901559847887 1278.325916057592 1106.6476761864187 1281.9200000000003 1110.43 L 1284.95 1113.64 C 1297.81 1127.3100000000002 1297.81 1127.3100000000002 1303.94 1132.19 L 1305.3 1133.29 C 1310.21 1137.23 1315.23 1141.04 1320.25 1144.85 Q 1327.62 1150.4599999999998 1334.93 1156.1799999999998 C 1341.2057084310436 1161.096114190854 1347.5327219377602 1165.946380077194 1353.9099999999999 1170.7299999999996 Q 1359.7900000000002 1175.1299999999999 1365.73 1179.4299999999998 C 1375.25 1186.35 1384.46 1193.4399999999998 1393.22 1201.2999999999997 L 1395.53 1203.3599999999997 C 1402.2117198938702 1209.3317315735214 1408.682348644987 1215.5355302730459 1414.9299999999998 1221.9599999999996 C 1417.78 1224.8599999999997 1420.68 1227.6299999999997 1423.77 1230.2799999999995 C 1428.41 1234.2799999999995 1432.75 1238.5699999999995 1437.08 1242.8999999999994 L 1441.1399999999999 1246.9099999999994 C 1446.3984878083636 1252.1300005361552 1451.3437811564559 1257.6563074173791 1455.9499999999998 1263.4599999999994 Q 1458.6699999999998 1266.8399999999995 1461.58 1270.0799999999992 C 1471.5 1281.2599999999993 1479.05 1294.5699999999993 1486.8799999999999 1307.2399999999993 C 1499.1499999999999 1327.2399999999993 1510.3999999999999 1347.8399999999992 1519.06 1369.6699999999994 C 1526.82 1389.4399999999994 1532.51 1409.9399999999994 1537.35 1430.5999999999995 L 1537.6 1431.6699999999994 C 1540.7099999999998 1445.3699999999994 1542.31 1459.7699999999993 1543.1 1473.7699999999993 C 1543.4599999999998 1481.9299999999994 1543.4399999999998 1490.0899999999992 1543.3899999999999 1498.2499999999993 L 1543.36 1503.8099999999993 C 1543.3 1523.6799999999992 1542.58 1543.2899999999993 1540 1562.9999999999993 L 1539.77 1564.7799999999993 C 1538.7329970403264 1572.8859982601257 1537.4758661975907 1580.9623136476748 1536 1589 L 1535.71 1590.58 C 1534.9554274005782 1594.700053245678 1534.1486960170705 1598.8103829806566 1533.29 1602.9099999999999 C 1532.6437855062156 1606.4456211131148 1531.7141187874784 1609.923510996161 1530.51 1613.31 C 1529.4499447243757 1615.9297728043828 1528.189545324595 1618.463944541873 1526.74 1620.8899999999999 C 1525.8021333805127 1622.2869058482893 1524.7555551101425 1623.607667563293 1523.61 1624.84 C 1519.82 1628.6499999999999 1515.4599999999998 1631.82 1511.1 1634.9399999999998 Q 1507.9399999999998 1637.2099999999998 1504.79 1639.5099999999998 L 1503.53 1640.4199999999998 C 1500.0605576442351 1642.9529150116143 1496.6334184571424 1645.543272159835 1493.2499999999998 1648.19 C 1488.2282711694413 1652.0922179851316 1483.1612608082633 1655.935812028841 1478.05 1659.7199999999998 C 1473.11 1663.4299999999998 1473.11 1663.4299999999998 1470.53 1664.7499999999998 C 1469.36 1665.2499999999998 1468.23 1665.6799999999998 1467 1665.9999999999998 C 1465.62 1666.1299999999999 1464.4 1666.0999999999997 1463 1665.9999999999998 C 1463.12 1663.9799999999998 1463.33 1661.9799999999998 1463.73 1659.9999999999998 C 1464 1658.9999999999998 1464 1658.9999999999998 1464.8 1657.2299999999998 C 1465.6460803688883 1655.706376524434 1466.533069034416 1654.2058317895187 1467.46 1652.7299999999998 C 1471.76 1645.7299999999998 1475.3400000000001 1638.4699999999998 1478.4 1630.86 C 1485.4188360636554 1612.8896706789099 1491.0290936681204 1594.4005618870792 1495.18 1575.56 L 1495.93 1572.27 C 1497.0648849685786 1567.203064507633 1498.0884646004345 1562.111839433223 1499 1557 L 1499.22 1555.8 C 1501.5 1543 1502.38 1530.37 1502.42 1517.3799999999999 Q 1502.42 1513.6499999999999 1502.39 1509.9299999999998 Q 1502.3700000000001 1505.2699999999998 1502.4 1500.6 C 1502.48 1483.1 1501.4 1466 1498.46 1448.74 C 1497.81 1445.05 1497.02 1441.4 1496.19 1437.75 L 1495.4 1434.22 C 1493.0769219848505 1423.6908373847166 1490.2739996216721 1413.273309268237 1487 1403 L 1486.58 1401.7 C 1481.59 1386.31 1474.98 1371.8500000000001 1467.71 1357.42 L 1465.71 1353.39 C 1458.8700000000001 1339.49 1450.71 1326.5400000000002 1441.58 1314.0400000000002 C 1439.1919854448074 1310.8258574374433 1436.741519600498 1307.6585886590838 1434.23 1304.54 C 1432.9151273698544 1302.8782742772362 1431.6150758437516 1301.2048746205603 1430.33 1299.5200000000002 C 1424.6683280433106 1292.177796117407 1418.6441864137678 1285.12237484048 1412.2799999999997 1278.3799999999999 Q 1409.8999999999999 1275.8000000000002 1407.59 1273.17 C 1403.7535472310258 1268.8685432981417 1399.7712233925342 1264.6994438022336 1395.6499999999999 1260.67 C 1392.8745922153037 1257.9791054918842 1390.2378523713273 1255.148782216325 1387.7499999999998 1252.19 C 1383.7899999999997 1247.46 1379.1499999999999 1243.39 1374.6299999999999 1239.22 C 1371.0218985876215 1235.922641335722 1367.4974469652718 1232.5348997573801 1364.06 1229.06 C 1360.21 1225.1599999999999 1356.1799999999998 1221.56 1352 1218 L 1346.05 1212.91 L 1344.2 1211.3400000000001 C 1340.3487889128824 1208.0591210631208 1336.551612252294 1204.7153386306625 1332.81 1201.3100000000002 C 1329.53 1198.3100000000002 1326.1599999999999 1195.4700000000003 1322.69 1192.6900000000003 C 1317.566275715398 1188.4882231165864 1312.599554253255 1184.0985619720732 1307.8 1179.5300000000002 L 1307 1178.7800000000002 L 1306.2 1178.0300000000002 Q 1303.1200000000001 1175.1800000000003 1299.94 1172.4300000000003 C 1292.0057164193404 1165.583298635841 1284.3463528479501 1158.4243290259963 1276.98 1150.9700000000003 C 1274.0950492804195 1147.991332772697 1271.0576409957357 1145.1642066000295 1267.88 1142.5000000000002 C 1264.7540943258111 1139.796495353116 1261.866764874843 1136.8288693704872 1259.25 1133.6300000000003 C 1249.09 1121.2700000000004 1240.41 1107.8100000000004 1232.01 1094.2300000000002 Q 1230 1091.0000000000002 1227.93 1087.7900000000002 C 1219.7770859480272 1075.1583180257228 1212.7180917790065 1061.8532849403223 1206.8300000000002 1048.0200000000002 C 1200.9849530314868 1034.1067949558749 1196.3576143816927 1019.7128608478381 1193 1005 C 1191.53 998.34 1190.18 991.6 1189.88 984.77 Q 1189.7 978.39 1190 972" stroke-linecap="round" />
</g>
		<g transform="matrix(0.16336861567344504 0 0 0.16336861567344504 -43.3961234819004 -19.929280614405748)"  >
<path style="stroke: none; stroke-width: 1; stroke-dasharray: none; stroke-linecap: butt; stroke-dashoffset: 0; stroke-linejoin: miter; stroke-miterlimit: 4; fill: rgb(254,254,254); fill-rule: nonzero; opacity: 1;"  paint-order="stroke"  transform=" translate(-758.5290756650271, -901.9999999999998)" d="M 555 606 L 559 607 C 561.0620925436771 610.1871581187324 562.8453713297909 613.5462798846954 564.33 617.04 C 565.5603497829984 620.0230665439748 566.7737027882894 623.0131150212994 567.9699999999998 626.0099999999998 C 572.5 637.26 577.1800000000001 648.35 583 659 L 583.85 660.58 C 588.37 668.9100000000001 593.77 676.5500000000001 599.38 684.1600000000001 Q 600.83 686.1300000000001 602.25 688.1000000000001 C 609.88 698.5000000000001 618.29 708.2000000000002 626.96 717.7500000000001 Q 629.7 720.7700000000001 632.37 723.8800000000001 C 645.64 739.0800000000002 645.64 739.0800000000002 651.74 744.1400000000001 C 654.99 746.8800000000001 657.92 749.9100000000001 660.89 752.94 C 666.4136296572092 758.6459037103449 672.3171208489 763.9714073660072 678.56 768.8800000000001 C 680.1021336548723 770.0855344729323 681.635507282792 771.3022331124773 683.1600000000001 772.5300000000002 C 698.17 784.57 713.99 795.5100000000001 729.93 806.2800000000001 L 732.93 808.3100000000001 C 741.3299999999999 814.0100000000001 749.87 819.48 758.43 824.9100000000001 Q 769.51 831.9100000000001 780.38 839.2400000000001 Q 783.5 841.3400000000001 786.65 843.4100000000001 C 805.5166328990313 855.9010913999291 823.727420016601 869.3555787296439 841.2099999999997 883.7199999999998 Q 844.08 886.08 846.97 888.37 C 853.22 893.37 859.07 898.7 864.9100000000001 904.17 L 865.7800000000001 905 L 866.6400000000001 905.8 Q 869.8600000000001 908.81 873.19 911.6899999999999 L 875.0200000000001 913.28 L 878.2500000000001 916.0799999999999 C 882.9100000000001 920.1099999999999 887.4500000000002 924.18 891.4100000000001 928.91 Q 893.6600000000001 931.6899999999999 895.83 934.51 Q 897.6500000000001 936.81 899.51 939.11 C 910.81 953.07 921.02 967.66 929.75 983.37 C 937.92 998.23 945.26 1013.3100000000001 950.75 1029.37 C 953.8225449317813 1038.6360476393122 956.5147951903806 1048.0238942659523 958.8199999999999 1057.5099999999998 L 959.87 1061.81 L 960.17 1063.05 C 961.1005675490724 1066.977600398389 961.7125551731764 1070.973913025735 962 1075 C 962.18 1079.39 962.16 1083.78 962.17 1088.17 L 962.17 1092.02 Q 962.1899999999999 1096.06 962.18 1100.09 L 962.2099999999999 1108.22 C 962.3 1126.46 962.03 1144.43 958.9899999999999 1162.45 Q 958.31 1166.3700000000001 957.4999999999999 1170.28 L 956.5699999999999 1175.1399999999999 C 954.65 1185.36 954.65 1185.36 952.91 1190.1399999999999 Q 951.56 1193.62 950 1196.9999999999998 L 946 1197.9999999999998 L 945.99 1196.8599999999997 C 945.8775339924326 1183.1597692706441 945.7408671125374 1169.4597478959372 945.5799999999983 1155.7599999999888 C 945.5375132060685 1149.7965033171467 945.4775129473252 1143.833144267671 945.3999999999993 1137.8700000000003 C 945.32 1126.2299999999996 944.6800000000001 1114.7499999999998 942.7 1103.2599999999998 C 942.0668456191579 1099.902101646837 941.3331828510651 1096.5639360520147 940.5 1093.2499999999998 L 940.12 1091.6899999999998 C 936.41 1076.7599999999998 931.86 1061.9099999999999 925.62 1047.82 C 923.3088618271438 1042.7049885154852 920.9152159897654 1037.627658974639 918.44 1032.59 C 912.46 1020.2499999999999 905.87 1008.17 897.9000000000001 996.9899999999999 L 895.6300000000001 993.8699999999999 L 894.8100000000001 992.7499999999999 C 889.8996784454467 986.0868165029505 884.7014172521915 979.640705703612 879.2299999999999 973.4299999999996 Q 876.99 970.7899999999998 874.85 968.0599999999998 C 869.01 960.7099999999998 862.5 953.9999999999999 856.0400000000001 947.2099999999998 C 853.7903324811411 944.8415328052989 851.5635622356909 942.4514216286705 849.3600000000001 940.0399999999997 C 839.0400000000001 928.7699999999999 839.0400000000001 928.7699999999999 833.1300000000001 923.9399999999998 L 829.0800000000002 920.5299999999999 L 823.2700000000002 915.5999999999999 C 820.7906950051386 913.5148904313022 818.3239835093482 911.4148522659675 815.87 909.3000000000001 C 808.1277970348015 902.7142828535384 800.1770710104653 896.3777142938745 792.0300000000001 890.3 Q 787.3700000000002 886.77 782.7500000000002 883.1899999999999 C 770.3618265081265 873.5831381571672 757.8609599150885 864.1224823195562 745.2499999999995 854.8099999999994 C 729.4224104609668 843.2996639194399 714.0570290420495 831.1668171498779 699.1900000000004 818.4399999999999 C 695.633974845921 815.3796350136105 692.0267994658383 812.3792118693642 688.3700000000003 809.44 C 684.2007564671403 806.0394989153671 680.1548222821694 802.4905508751289 676.2400000000002 798.8 Q 670.8900000000002 793.81 665.1900000000003 789.25 C 661.7682182028037 786.5454042624357 658.5216822052666 783.6261939107408 655.4700000000003 780.51 C 653.5682683694332 778.5609247403536 651.5760750281208 776.7022116899165 649.5000000000001 774.9399999999998 C 632.5200000000002 760.26 632.5200000000002 760.26 626.2500000000002 752.7099999999999 Q 624.1300000000002 750.06 622.0800000000003 747.3599999999999 C 620.5300000000003 745.4099999999999 618.9000000000003 743.5199999999999 617.2800000000003 741.6299999999999 C 611.4532213603704 734.7267162049011 606.0914189241919 727.4440188149513 601.2300000000004 719.8299999999999 C 589.9700000000004 702.7099999999999 579.4300000000004 685.3399999999999 571.2600000000003 666.5099999999999 C 565.4400000000003 652.8899999999999 560.2300000000004 638.6599999999999 556.7700000000003 624.2399999999999 C 555.8549133824012 620.4192890377993 555.2298009653956 616.5349006497755 554.9000000000003 612.6199999999999 C 554.8000000000003 610.3999999999999 554.8000000000003 608.2199999999999 555.0000000000003 605.9999999999999" stroke-linecap="round" />
</g>
</g>
</g>
<g transform="matrix(1.9211538461538462 0 0 1.9211538461538462 638.6964971153847 718.4188732279623)" id="text-logo"  >
<g style=""  paint-order="stroke"   >
		<g transform="matrix(1 0 0 1 0 0)" id="text-logo-path-0"  >
<path style="stroke: none; stroke-width: 0; stroke-dasharray: none; stroke-linecap: butt; stroke-dashoffset: 0; stroke-linejoin: miter; stroke-miterlimit: 4; fill: rgb(128,57,10); fill-rule: nonzero; opacity: 1;"  paint-order="stroke"  transform=" translate(-207.885, 20.65)" d="M -0.12 -41.3 L -0.12 -40.71 C 2.42 -40.71 4.96 -39 5.72 -36.88 L 19.18 0 L 20.36 0 L 29.68 -27.79 L 39.83 0 L 41.01 0 L 53.4 -36.82 C 54.1 -38.94 56.52 -40.71 59.12 -40.71 L 59.12 -41.3 L 49.44 -41.3 L 49.44 -40.71 C 51.98 -40.71 52.92 -38.94 52.22 -36.82 L 43.54 -10.97 L 34.04 -36.88 C 33.28 -39 34.1 -40.71 36.7 -40.71 L 36.7 -41.3 L 20.53 -41.3 L 20.53 -40.71 C 23.07 -40.71 25.61 -39 26.37 -36.88 L 29.09 -29.5 L 22.83 -10.97 L 13.39 -36.88 C 12.63 -39 13.45 -40.71 16.05 -40.71 L 16.05 -41.3 Z M 62.07 -41.3 L 62.07 -40.71 C 64.61 -40.71 66.32 -38.82 66.32 -36.58 L 66.32 -4.72 C 66.32 -2.54 64.66 -0.59 62.07 -0.59 L 62.07 0 L 77.64 0 L 77.64 -0.59 C 75.11 -0.59 73.4 -2.48 73.4 -4.72 L 73.4 -36.58 C 73.4 -38.76 75.05 -40.71 77.64 -40.71 L 77.64 -41.3 Z M 82.01 -41.3 L 82.01 -40.71 C 84.55 -40.71 86.26 -38.82 86.26 -36.58 L 86.26 -4.72 C 86.26 -2.54 84.61 -0.59 82.01 -0.59 L 82.01 0 L 109.8 0 L 109.98 -1.06 L 111.1 -8.73 L 110.21 -8.85 C 109.56 -4.25 106.26 -1.18 102.9 -1.18 L 93.34 -1.18 L 93.34 -36.58 C 93.34 -38.82 94.99 -40.71 97.59 -40.71 L 97.59 -41.3 Z M 114.76 -41.3 L 114.76 -40.71 C 117.29 -40.71 119 -38.82 119 -36.58 L 119 -4.72 C 119 -2.54 117.35 -0.59 114.76 -0.59 L 114.76 0 L 142.54 0 L 142.72 -1.06 L 143.84 -8.73 L 142.96 -8.85 C 142.31 -4.25 139 -1.18 135.64 -1.18 L 126.08 -1.18 L 126.08 -36.58 C 126.08 -38.82 127.74 -40.71 130.33 -40.71 L 130.33 -41.3 Z M 167.5 0.59 C 178.77 0.59 187.09 -7.97 187.09 -20.71 C 187.09 -32.92 179.24 -41.89 167.5 -41.89 C 156.23 -41.89 147.91 -33.45 147.91 -20.71 C 147.91 -8.38 155.7 0.59 167.5 0.59 Z M 155.29 -20.71 C 155.29 -33.22 159.6 -40.71 167.5 -40.71 C 175.11 -40.71 179.71 -33.63 179.71 -20.71 C 179.71 -8.2 175.41 -0.59 167.5 -0.59 C 159.89 -0.59 155.29 -7.73 155.29 -20.71 Z M 186.79 -41.3 L 186.79 -40.71 C 189.33 -40.71 191.87 -39 192.64 -36.88 L 206.09 0 L 207.27 0 L 216.59 -27.79 L 226.74 0 L 227.92 0 L 240.31 -36.82 C 241.02 -38.94 243.43 -40.71 246.03 -40.71 L 246.03 -41.3 L 236.35 -41.3 L 236.35 -40.71 C 238.89 -40.71 239.84 -38.94 239.13 -36.82 L 230.45 -10.97 L 220.96 -36.88 C 220.19 -39 221.01 -40.71 223.61 -40.71 L 223.61 -41.3 L 207.44 -41.3 L 207.44 -40.71 C 209.98 -40.71 212.52 -39 213.29 -36.88 L 216 -29.5 L 209.75 -10.97 L 200.31 -36.88 C 199.54 -39 200.36 -40.71 202.96 -40.71 L 202.96 -41.3 Z M 304.32 -34.1 C 304.32 -36.58 302.08 -41.89 291.93 -41.89 C 280.66 -41.89 272.34 -33.45 272.34 -20.71 C 272.34 -8.44 280.13 0.59 291.93 0.59 C 298.42 0.59 304.09 -2.3 307.57 -7.26 L 307.57 -13.57 C 307.57 -15.75 308.57 -17.7 310.1 -17.7 L 310.1 -18.29 L 294.53 -18.29 L 294.53 -17.7 C 298.13 -17.7 300.49 -15.81 300.49 -13.57 L 300.49 -3.01 C 298.95 -2.3 297.3 -1.95 295.71 -1.95 C 287.15 -1.95 281.14 -8.85 279.9 -21.36 C 278.6 -33.45 282.73 -40.71 292.76 -40.71 C 298.48 -40.71 295.24 -38.35 295.24 -33.63 C 295.24 -31.15 297.3 -29.03 299.84 -29.03 C 302.32 -29.03 304.32 -30.86 304.32 -34.1 Z M 313 -41.3 L 313 -40.71 C 315.53 -40.71 317.24 -38.82 317.24 -36.58 L 317.24 -4.72 C 317.24 -2.54 315.59 -0.59 313 -0.59 L 313 0 L 340.78 0 L 340.96 -1.06 L 342.08 -8.73 L 341.2 -8.85 C 340.55 -4.25 337.24 -1.18 333.88 -1.18 L 324.32 -1.18 L 324.32 -36.58 C 324.32 -38.82 325.98 -40.71 328.57 -40.71 L 328.57 -41.3 Z M 345.74 -40.71 C 348.28 -40.71 349.99 -38.82 349.99 -36.58 L 349.99 -4.72 C 349.99 -2.54 348.34 -0.59 345.74 -0.59 L 345.74 0 L 373.53 0 L 373.71 -1.06 L 374.83 -8.73 L 373.94 -8.85 C 373.29 -4.25 369.99 -1.18 366.63 -1.18 L 357.07 -1.18 L 357.07 -23.6 L 362.14 -23.6 C 364.8 -23.6 367.1 -21.12 367.1 -17.23 L 367.81 -17.23 L 367.81 -31.15 L 367.1 -31.15 C 367.1 -27.26 364.86 -24.78 362.14 -24.78 L 357.07 -24.78 L 357.07 -40.12 L 366.04 -40.12 C 369.34 -40.12 372.7 -37.05 373.35 -32.45 L 374.24 -32.57 L 373.12 -40.24 L 372.94 -41.3 L 345.74 -41.3 Z M 379.67 -41.3 L 379.67 -40.71 C 382.2 -40.71 383.91 -38.82 383.91 -36.58 L 383.91 -4.72 C 383.91 -2.54 382.26 -0.59 379.67 -0.59 L 379.67 0 L 389.34 0 L 389.34 -0.59 C 386.75 -0.59 385.09 -2.48 385.09 -4.72 L 385.09 -36.99 L 410.46 0 L 411.64 0 L 411.64 -36.58 C 411.64 -38.82 413.3 -40.71 415.89 -40.71 L 415.89 -41.3 L 406.22 -41.3 L 406.22 -40.71 C 408.75 -40.71 410.46 -38.82 410.46 -36.58 L 410.46 -12.45 L 390.7 -41.3 Z" stroke-linecap="round" />
</g>
</g>
</g>
<g transform="matrix(1.9211538461538462 0 0 1.9211538461538462 639.9481288461537 809.2068789587315)" id="tagline-c5d6ef93-143e-468a-b14b-0de0181a8366-logo"  >
<g style=""  paint-order="stroke"   >
		<g transform="matrix(1 0 0 1 5.684342e-14 0)" id="tagline-c5d6ef93-143e-468a-b14b-0de0181a8366-logo-path-0"  >
<path style="stroke: none; stroke-width: 0; stroke-dasharray: none; stroke-linecap: butt; stroke-dashoffset: 0; stroke-linejoin: miter; stroke-miterlimit: 4; fill: rgb(239,124,46); fill-rule: nonzero; opacity: 1;"  paint-order="stroke"  transform=" translate(-133.90499999999997, 9.625)" d="M 2.29 0 L 2.29 -19.25 L 4.51 -19.25 L 4.51 -11.12 L 15.44 -11.12 L 15.44 -19.25 L 17.66 -19.25 L 17.66 0 L 15.44 0 L 15.44 -9.13 L 4.51 -9.13 L 4.51 0 L 2.29 0 Z M 46.93 0 L 39.72 -19.28 L 41.96 -19.28 L 49.41 0 L 46.93 0 Z M 32.48 0 L 39.72 -19.28 L 41.93 -19.28 L 34.91 0 L 32.48 0 Z M 35.51 -5.37 L 36.05 -7.24 L 45.68 -7.24 L 46.28 -5.37 L 35.51 -5.37 Z M 64.23 0 L 64.23 -19.25 L 66.45 -19.25 L 66.45 0 L 64.23 0 Z M 83.56 -19.25 L 90.48 -19.25 Q 91.91 -19.25 93.16 -18.59 Q 94.42 -17.93 95.19 -16.74 Q 95.96 -15.55 95.96 -14.07 L 95.96 -14.07 Q 95.96 -12.23 94.78 -10.75 Q 93.61 -9.26 91.83 -8.8 L 91.83 -8.8 L 92.23 -8.15 L 97.33 -0.38 L 97.33 0 L 95.07 0 L 89.53 -8.48 L 85.78 -8.48 L 85.78 0 L 83.56 0 L 83.56 -19.25 Z M 90.18 -10.48 Q 90.91 -10.48 91.73 -10.89 Q 92.56 -11.31 93.12 -12.14 Q 93.69 -12.96 93.69 -14.07 L 93.69 -14.07 Q 93.69 -15.34 92.74 -16.27 Q 91.8 -17.2 90.29 -17.2 L 90.29 -17.2 L 85.78 -17.2 L 85.78 -10.48 L 90.18 -10.48 Z M 131.98 -3.62 Q 132.84 -2.83 134.26 -2.28 Q 135.67 -1.73 137.43 -1.73 L 137.43 -1.73 Q 139.81 -1.73 140.97 -2.62 Q 142.13 -3.51 142.13 -5.05 L 142.13 -5.05 Q 142.13 -5.94 141.68 -6.57 Q 141.24 -7.21 140.17 -7.75 Q 139.1 -8.29 137.11 -8.88 L 137.11 -8.88 Q 134.84 -9.58 133.47 -10.31 Q 132.11 -11.04 131.45 -12.03 Q 130.79 -13.01 130.79 -14.45 L 130.79 -14.45 Q 130.79 -16.79 132.6 -18.18 Q 134.41 -19.57 137.54 -19.57 L 137.54 -19.57 Q 139.72 -19.57 141.34 -19.02 Q 142.96 -18.47 143.8 -17.68 L 143.8 -17.68 L 142.59 -15.85 Q 141.8 -16.55 140.49 -17.04 Q 139.18 -17.52 137.54 -17.52 L 137.54 -17.52 Q 135.54 -17.52 134.27 -16.7 Q 133 -15.88 133 -14.45 L 133 -14.45 Q 133 -13.66 133.47 -13.1 Q 133.95 -12.53 135.03 -12.03 Q 136.11 -11.53 138.08 -10.96 L 138.08 -10.96 Q 140.48 -10.29 141.84 -9.46 Q 143.21 -8.64 143.77 -7.59 Q 144.34 -6.53 144.34 -5.08 L 144.34 -5.08 Q 144.34 -3.51 143.56 -2.29 Q 142.78 -1.08 141.24 -0.38 Q 139.7 0.32 137.46 0.32 L 137.46 0.32 Q 135.22 0.32 133.47 -0.32 Q 131.73 -0.97 130.76 -1.92 L 130.76 -1.92 L 131.98 -3.62 L 131.98 -3.62 Z M 171.58 0 L 164.38 -19.28 L 166.62 -19.28 L 174.07 0 L 171.58 0 Z M 157.14 0 L 164.38 -19.28 L 166.59 -19.28 L 159.57 0 L 157.14 0 Z M 160.16 -5.37 L 160.7 -7.24 L 170.34 -7.24 L 170.94 -5.37 L 160.16 -5.37 Z M 188.89 0 L 188.89 -19.25 L 191.13 -19.25 L 191.11 -2 L 200.91 -2 L 200.91 0 L 188.89 0 Z M 224.75 0.32 Q 221.89 0.32 219.74 -1 Q 217.59 -2.32 216.46 -4.59 Q 215.32 -6.86 215.32 -9.61 L 215.32 -9.61 Q 215.32 -12.37 216.47 -14.65 Q 217.62 -16.93 219.77 -18.25 Q 221.91 -19.57 224.75 -19.57 L 224.75 -19.57 Q 227.61 -19.57 229.77 -18.24 Q 231.93 -16.9 233.09 -14.63 Q 234.25 -12.37 234.25 -9.61 L 234.25 -9.61 Q 234.25 -6.86 233.1 -4.59 Q 231.96 -2.32 229.8 -1 Q 227.64 0.32 224.75 0.32 L 224.75 0.32 L 224.75 0.32 Z M 224.77 -1.73 Q 227.12 -1.73 228.74 -2.82 Q 230.36 -3.92 231.17 -5.72 Q 231.98 -7.53 231.98 -9.64 L 231.98 -9.64 Q 231.98 -11.74 231.19 -13.54 Q 230.39 -15.34 228.76 -16.43 Q 227.12 -17.52 224.77 -17.52 L 224.77 -17.52 Q 222.43 -17.52 220.81 -16.43 Q 219.19 -15.34 218.39 -13.54 Q 217.59 -11.74 217.59 -9.64 L 217.59 -9.64 Q 217.59 -7.53 218.39 -5.72 Q 219.19 -3.92 220.81 -2.82 Q 222.43 -1.73 224.77 -1.73 L 224.77 -1.73 L 224.77 -1.73 Z M 263.01 0 L 250.91 -18.06 L 251.59 -19.25 L 252.53 -19.25 L 265.27 -0.49 L 264.09 0 L 263.01 0 Z M 250.15 0 L 250.15 -19.25 L 252.31 -19.25 L 252.31 0 L 250.15 0 Z M 263.36 0 L 263.36 -19.25 L 265.52 -19.25 L 265.52 0 L 263.36 0 Z" stroke-linecap="round" />
</g>
</g>
</g>
</svg>